<svg xmlns="http://www.w3.org/2000/svg" xmlns:xlink="http://www.w3.org/1999/xlink" width="1300" height="860"><g transform="translate(-220 -40)"><path d="M0 0h1760v1360H0z" fill="#fff"/><path d="M1200 160h300v580h-300z" stroke="#000" stroke-width="2" fill="#fff"/><use xlink:href="#a" transform="matrix(1,0,0,1,1205,165) translate(145 14.4)"/><use xlink:href="#b" transform="matrix(1,0,0,1,1205,165) translate(23.72500000000001 36)"/><use xlink:href="#c" transform="matrix(1,0,0,1,1205,165) translate(87.62500000000001 36)"/><path d="M240 225.8h400V880H240z" stroke="#000" stroke-width="2" fill="#fff"/><use xlink:href="#d" transform="matrix(1,0,0,1,250,235.7999999999999) translate(0 102.56666666666658)"/><use xlink:href="#e" transform="matrix(1,0,0,1,250,235.7999999999999) translate(32.6925925925926 102.56666666666658)"/><use xlink:href="#f" transform="matrix(1,0,0,1,250,235.7999999999999) translate(0 123.36666666666659)"/><use xlink:href="#g" transform="matrix(1,0,0,1,250,235.7999999999999) translate(0 144.16666666666657)"/><use xlink:href="#h" transform="matrix(1,0,0,1,250,235.7999999999999) translate(70.20000000000002 144.16666666666657)"/><use xlink:href="#i" transform="matrix(1,0,0,1,250,235.7999999999999) translate(197.1666666666667 144.16666666666657)"/><use xlink:href="#g" transform="matrix(1,0,0,1,250,235.7999999999999) translate(0 164.96666666666658)"/><use xlink:href="#j" transform="matrix(1,0,0,1,250,235.7999999999999) translate(70.20000000000002 164.96666666666658)"/><use xlink:href="#k" transform="matrix(1,0,0,1,250,235.7999999999999) translate(114.44814814814816 164.96666666666658)"/><use xlink:href="#g" transform="matrix(1,0,0,1,250,235.7999999999999) translate(0 185.7666666666666)"/><use xlink:href="#j" transform="matrix(1,0,0,1,250,235.7999999999999) translate(70.20000000000002 185.7666666666666)"/><use xlink:href="#l" transform="matrix(1,0,0,1,250,235.7999999999999) translate(114.44814814814816 185.7666666666666)"/><use xlink:href="#f" transform="matrix(1,0,0,1,250,235.7999999999999) translate(0 206.5666666666666)"/><use xlink:href="#m" transform="matrix(1,0,0,1,250,235.7999999999999) translate(0 227.36666666666662)"/><use xlink:href="#n" transform="matrix(1,0,0,1,250,235.7999999999999) translate(63.50740740740742 227.36666666666662)"/><use xlink:href="#m" transform="matrix(1,0,0,1,250,235.7999999999999) translate(0 248.16666666666663)"/><use xlink:href="#o" transform="matrix(1,0,0,1,250,235.7999999999999) translate(63.50740740740742 248.16666666666663)"/><use xlink:href="#m" transform="matrix(1,0,0,1,250,235.7999999999999) translate(0 268.96666666666664)"/><use xlink:href="#p" transform="matrix(1,0,0,1,250,235.7999999999999) translate(63.50740740740742 268.96666666666664)"/><use xlink:href="#m" transform="matrix(1,0,0,1,250,235.7999999999999) translate(0 289.76666666666665)"/><use xlink:href="#q" transform="matrix(1,0,0,1,250,235.7999999999999) translate(63.50740740740742 289.76666666666665)"/><use xlink:href="#f" transform="matrix(1,0,0,1,250,235.7999999999999) translate(0 310.56666666666666)"/><use xlink:href="#d" transform="matrix(1,0,0,1,250,235.7999999999999) translate(0 331.3666666666667)"/><use xlink:href="#r" transform="matrix(1,0,0,1,250,235.7999999999999) translate(32.6925925925926 331.3666666666667)"/><use xlink:href="#d" transform="matrix(1,0,0,1,250,235.7999999999999) translate(0 352.1666666666667)"/><use xlink:href="#s" transform="matrix(1,0,0,1,250,235.7999999999999) translate(32.6925925925926 352.1666666666667)"/><use xlink:href="#d" transform="matrix(1,0,0,1,250,235.7999999999999) translate(0 372.9666666666667)"/><use xlink:href="#t" transform="matrix(1,0,0,1,250,235.7999999999999) translate(32.6925925925926 372.9666666666667)"/><use xlink:href="#f" transform="matrix(1,0,0,1,250,235.7999999999999) translate(0 393.76666666666665)"/><use xlink:href="#d" transform="matrix(1,0,0,1,250,235.7999999999999) translate(0 414.5666666666667)"/><use xlink:href="#u" transform="matrix(1,0,0,1,250,235.7999999999999) translate(32.6925925925926 414.5666666666667)"/><use xlink:href="#v" transform="matrix(1,0,0,1,250,235.7999999999999) translate(0 435.3666666666667)"/><use xlink:href="#w" transform="matrix(1,0,0,1,250,235.7999999999999) translate(37.50740740740742 435.3666666666667)"/><use xlink:href="#d" transform="matrix(1,0,0,1,250,235.7999999999999) translate(0 456.16666666666674)"/><use xlink:href="#x" transform="matrix(1,0,0,1,250,235.7999999999999) translate(32.6925925925926 456.16666666666674)"/><use xlink:href="#v" transform="matrix(1,0,0,1,250,235.7999999999999) translate(0 476.9666666666667)"/><use xlink:href="#y" transform="matrix(1,0,0,1,250,235.7999999999999) translate(37.50740740740742 476.9666666666667)"/><use xlink:href="#v" transform="matrix(1,0,0,1,250,235.7999999999999) translate(0 497.76666666666677)"/><use xlink:href="#z" transform="matrix(1,0,0,1,250,235.7999999999999) translate(37.50740740740742 497.76666666666677)"/><use xlink:href="#v" transform="matrix(1,0,0,1,250,235.7999999999999) translate(0 518.5666666666667)"/><use xlink:href="#A" transform="matrix(1,0,0,1,250,235.7999999999999) translate(37.50740740740742 518.5666666666667)"/><use xlink:href="#v" transform="matrix(1,0,0,1,250,235.7999999999999) translate(0 539.3666666666668)"/><use xlink:href="#B" transform="matrix(1,0,0,1,250,235.7999999999999) translate(37.50740740740742 539.3666666666668)"/><path d="M240 160h240v60H240z" fill="none"/><use xlink:href="#C" transform="matrix(1,0,0,1,245,165) translate(0 39.333333333333336)"/><use xlink:href="#D" transform="matrix(1,0,0,1,245,165) translate(72.51851851851853 39.333333333333336)"/><path d="M1200 60h240v100h-240z" fill="none"/><use xlink:href="#E" transform="matrix(1,0,0,1,1200,60) translate(0 84)"/><path d="M1200 240h300v200h-300z" stroke="#000" stroke-width="2" fill="#fff"/><use xlink:href="#F" transform="matrix(1,0,0,1,1205,245) translate(40.15000000000002 98.60000000000001)"/><path d="M740 400h360v60H740z" stroke="#000" stroke-width="2" fill="#fff"/><use xlink:href="#G" transform="matrix(1,0,0,1,745,405) translate(40.64999999999998 28.6)"/><use xlink:href="#H" transform="matrix(1,0,0,1,745,405) translate(172.5 28.6)"/><path d="M740 515.5h360v75H740z" stroke="#000" stroke-width="2" fill="#fff"/><use xlink:href="#I" transform="matrix(1,0,0,1,745,520.5) translate(108.07499999999999 25.299999999999997)"/><use xlink:href="#J" transform="matrix(1,0,0,1,745,520.5) translate(154.02499999999998 25.299999999999997)"/><use xlink:href="#I" transform="matrix(1,0,0,1,745,520.5) translate(110.6 46.9)"/><use xlink:href="#K" transform="matrix(1,0,0,1,745,520.5) translate(156.55 46.9)"/><path d="M641 430.67h98" fill="none"/><path d="M641 430.67h4.08m8.17 0h8.17m8.16 0h8.17m8.17 0h8.16m8.17 0h8.17m8.16 0h8.17m8.17 0H739" stroke="#000" stroke-width="2" fill="none"/><path d="M641 431.67h-1v-2h1zM739 430.67l-14.27 4.63v-9.27z"/><path d="M740 429.94v1.45l-16.27 5.28v-12.03zm-14.27 4l10.03-3.27-10.03-3.26z"/><path d="M1199 386.27h-49v27.06h-49" stroke="#000" stroke-width="2" fill="none"/><path d="M1200 387.27h-1v-2h1zM1115.27 417.97l-14.27-4.64 14.27-4.63z"/><path d="M1116.27 419.35l-16.27-5.3v-1.44l16.27-5.28zm-12.03-6.02l10.03 3.26v-6.53z"/><path d="M641.33 260H1199" stroke="#000" stroke-width="2" fill="none"/><path d="M640 260h1.33v1h-3v-2H640zM1199 260l-14.27 4.64v-9.28z"/><path d="M1200 259.27v1.46l-16.27 5.28v-12zm-14.27 4l10.03-3.27-10.03-3.26z"/><path d="M1200 760h300v120h-300z" stroke="#000" stroke-width="2" fill="#fff"/><g><use xlink:href="#b" transform="matrix(1,0,0,1,1200,760) translate(84.6 63.6)"/><use xlink:href="#L" transform="matrix(1,0,0,1,1200,760) translate(148.5 63.6)"/></g><path d="M1199 317.33H641" stroke="#000" stroke-width="2" fill="none"/><path d="M1200 318.33h-1v-2h1zM655.27 321.97L641 317.33l14.27-4.63z"/><path d="M656.27 323.35l-16.27-5.3v-1.44l16.27-5.28zm-12.03-6.02l10.03 3.26v-6.53z"/><path d="M641 802.04h558" stroke="#000" stroke-width="2" fill="none"/><path d="M641 803.04h-1v-2h1zM1199 802.04l-14.27 4.64v-9.27z"/><path d="M1200 801.32v1.45l-16.27 5.28v-12.02zm-14.27 3.98l10.03-3.26-10.03-3.26z"/><path d="M1199 862.55H641" stroke="#000" stroke-width="2" fill="none"/><path d="M1200 863.55h-1v-2h1zM655.27 867.18L641 862.55l14.27-4.64z"/><path d="M656.27 868.56l-16.27-5.3v-1.44l16.27-5.3zm-12.03-6l10.03 3.24v-6.5z"/><path d="M980 820h240v60H980z" fill="none"/><g><use xlink:href="#M" transform="matrix(1,0,0,1,985,825) translate(39.099999999999994 28.6)"/><use xlink:href="#N" transform="matrix(1,0,0,1,985,825) translate(119 28.6)"/></g><path d="M640 760h220v60H640z" fill="none"/><g><use xlink:href="#O" transform="matrix(1,0,0,1,645,765) translate(11.625 28.6)"/><use xlink:href="#N" transform="matrix(1,0,0,1,645,765) translate(126.47500000000001 28.6)"/></g><path d="M1000 280h200v40h-200z" fill="none"/><g><use xlink:href="#P" transform="matrix(1,0,0,1,1005,285) translate(8.099999999999994 18.6)"/></g><path d="M640 220h200v40H640z" fill="none"/><g><use xlink:href="#M" transform="matrix(1,0,0,1,645,225) translate(19.099999999999994 18.6)"/><use xlink:href="#N" transform="matrix(1,0,0,1,645,225) translate(99 18.6)"/></g><path d="M1101 446.67h49v52h49" stroke="#000" stroke-width="2" fill="none"/><path d="M1101 447.67h-1v-2h1zM1199 498.67l-14.27 4.63v-9.27z"/><path d="M1200 497.94v1.45l-16.27 5.28v-12.03zm-14.27 4l10.03-3.27-10.03-3.26z"/><path d="M1100 553h99" stroke="#000" stroke-width="2" fill="none"/><path d="M1114.27 557.64L1100 553l14.27-4.64z"/><path d="M1115.27 559l-15.27-4.95v-2.1l15.27-4.96zm-12.03-6l10.03 3.26v-6.52zM1200 554h-1v-2h1z"/><path d="M740 553h-99" fill="none"/><path d="M740 553h-4.13m-8.25 0h-8.25m-8.25 0h-8.25m-8.25 0h-8.25m-8.25 0h-8.25m-8.25 0h-8.25m-8.25 0H641" stroke="#000" stroke-width="2" fill="none"/><path d="M740 553l-14.27 4.64v-9.28z"/><path d="M740 551.95v2.1L724.73 559v-12zm-13.27 4.3l10.03-3.25-10.03-3.26zM641 554h-1v-2h1z"/><path d="M641 638.67h558" stroke="#000" stroke-width="2" fill="none"/><path d="M641 639.67h-1v-2h1zM1199 638.67l-14.27 4.63v-9.27z"/><path d="M1200 637.94v1.45l-16.27 5.28v-12.03zm-14.27 4l10.03-3.27-10.03-3.26z"/><path d="M1199 697.33H641" stroke="#000" stroke-width="2" fill="none"/><path d="M1200 698.33h-1v-2h1zM655.27 701.97L641 697.33l14.27-4.63z"/><path d="M656.27 703.35l-16.27-5.3v-1.44l16.27-5.28zm-12.03-6.02l10.03 3.26v-6.53z"/><path d="M1040 660h180v40h-180z" fill="none"/><g><use xlink:href="#Q" transform="matrix(1,0,0,1,1045,665) translate(32.574999999999996 18.6)"/></g><defs><path d="M-5 72V49h209v23H-5" id="R"/><path d="M143 0L79-87 56-68V0H24v-261h32v163l83-92h37l-77 82L181 0h-38" id="S"/><path d="M100-194c63 0 86 42 84 106H49c0 40 14 67 53 68 26 1 43-12 49-29l28 8c-11 28-37 45-77 45C44 4 14-33 15-96c1-61 26-98 85-98zm52 81c6-60-76-77-97-28-3 7-6 17-6 28h103" id="T"/><path d="M114-163C36-179 61-72 57 0H25l-1-190h30c1 12-1 29 2 39 6-27 23-49 58-41v29" id="U"/><path d="M117-194c89-4 53 116 60 194h-32v-121c0-31-8-49-39-48C34-167 62-67 57 0H25l-1-190h30c1 10-1 24 2 32 11-22 29-35 61-36" id="V"/><path d="M24 0v-261h32V0H24" id="W"/><g id="b"><use transform="matrix(0.05,0,0,0.05,0,0)" xlink:href="#R"/><use transform="matrix(0.05,0,0,0.05,10,0)" xlink:href="#S"/><use transform="matrix(0.05,0,0,0.05,19,0)" xlink:href="#T"/><use transform="matrix(0.05,0,0,0.05,29,0)" xlink:href="#U"/><use transform="matrix(0.05,0,0,0.05,34.95,0)" xlink:href="#V"/><use transform="matrix(0.05,0,0,0.05,44.95,0)" xlink:href="#T"/><use transform="matrix(0.05,0,0,0.05,54.95,0)" xlink:href="#W"/></g><path d="M96-169c-40 0-48 33-48 73s9 75 48 75c24 0 41-14 43-38l32 2c-6 37-31 61-74 61-59 0-76-41-82-99-10-93 101-131 147-64 4 7 5 14 7 22l-32 3c-4-21-16-35-41-35" id="X"/><path d="M100-194c62-1 85 37 85 99 1 63-27 99-86 99S16-35 15-95c0-66 28-99 85-99zM99-20c44 1 53-31 53-75 0-43-8-75-51-75s-53 32-53 75 10 74 51 75" id="Y"/><path d="M210-169c-67 3-38 105-44 169h-31v-121c0-29-5-50-35-48C34-165 62-65 56 0H25l-1-190h30c1 10-1 24 2 32 10-44 99-50 107 0 11-21 27-35 58-36 85-2 47 119 55 194h-31v-121c0-29-5-49-35-48" id="Z"/><path d="M115-194c55 1 70 41 70 98S169 2 115 4C84 4 66-9 55-30l1 105H24l-1-265h31l2 30c10-21 28-34 59-34zm-8 174c40 0 45-34 45-75s-6-73-45-74c-42 0-51 32-51 76 0 43 10 73 51 73" id="aa"/><path d="M84 4C-5 8 30-112 23-190h32v120c0 31 7 50 39 49 72-2 45-101 50-169h31l1 190h-30c-1-10 1-25-2-33-11 22-28 36-60 37" id="ab"/><path d="M59-47c-2 24 18 29 38 22v24C64 9 27 4 27-40v-127H5v-23h24l9-43h21v43h35v23H59v120" id="ac"/><path d="M190 0L58-211 59 0H30v-248h39L202-35l-2-213h31V0h-41" id="ad"/><path d="M206 0h-36l-40-164L89 0H53L-1-190h32L70-26l43-164h34l41 164 42-164h31" id="ae"/><path d="M137 0h-34L2-248h35l83 218 83-218h36" id="af"/><path d="M24-231v-30h32v30H24zM24 0v-190h32V0H24" id="ag"/><path d="M179-190L93 31C79 59 56 82 12 73V49c39 6 53-20 64-50L1-190h34L92-34l54-156h33" id="ah"/><path d="M87 75C49 33 22-17 22-94c0-76 28-126 65-167h31c-38 41-64 92-64 168S80 34 118 75H87" id="ai"/><path d="M33-261c38 41 65 92 65 168S71 34 33 75H2C39 34 66-17 66-93S39-220 2-261h31" id="aj"/><g id="c"><use transform="matrix(0.05,0,0,0.05,0,0)" xlink:href="#X"/><use transform="matrix(0.05,0,0,0.05,9,0)" xlink:href="#Y"/><use transform="matrix(0.05,0,0,0.05,19,0)" xlink:href="#Z"/><use transform="matrix(0.05,0,0,0.05,33.95,0)" xlink:href="#aa"/><use transform="matrix(0.05,0,0,0.05,43.95,0)" xlink:href="#ab"/><use transform="matrix(0.05,0,0,0.05,53.95,0)" xlink:href="#ac"/><use transform="matrix(0.05,0,0,0.05,58.95,0)" xlink:href="#T"/><use transform="matrix(0.05,0,0,0.05,68.95,0)" xlink:href="#ad"/><use transform="matrix(0.05,0,0,0.05,81.9,0)" xlink:href="#T"/><use transform="matrix(0.05,0,0,0.05,91.9,0)" xlink:href="#ae"/><use transform="matrix(0.05,0,0,0.05,104.85000000000001,0)" xlink:href="#af"/><use transform="matrix(0.05,0,0,0.05,115.85000000000001,0)" xlink:href="#T"/><use transform="matrix(0.05,0,0,0.05,125.85000000000001,0)" xlink:href="#W"/><use transform="matrix(0.05,0,0,0.05,129.8,0)" xlink:href="#Y"/><use transform="matrix(0.05,0,0,0.05,139.8,0)" xlink:href="#X"/><use transform="matrix(0.05,0,0,0.05,148.8,0)" xlink:href="#ag"/><use transform="matrix(0.05,0,0,0.05,152.75,0)" xlink:href="#ac"/><use transform="matrix(0.05,0,0,0.05,157.75,0)" xlink:href="#ah"/><use transform="matrix(0.05,0,0,0.05,166.75,0)" xlink:href="#ai"/><use transform="matrix(0.05,0,0,0.05,172.7,0)" xlink:href="#aj"/></g><g id="d"><use transform="matrix(0.048148148148148155,0,0,0.048148148148148155,0,0)" xlink:href="#ab"/><use transform="matrix(0.048148148148148155,0,0,0.048148148148148155,9.629629629629632,0)" xlink:href="#ag"/><use transform="matrix(0.048148148148148155,0,0,0.048148148148148155,13.433333333333335,0)" xlink:href="#V"/><use transform="matrix(0.048148148148148155,0,0,0.048148148148148155,23.062962962962967,0)" xlink:href="#ac"/></g><path d="M85-194c31 0 48 13 60 33l-1-100h32l1 261h-30c-2-10 0-23-3-31C134-8 116 4 85 4 32 4 16-35 15-94c0-66 23-100 70-100zm9 24c-40 0-46 34-46 75 0 40 6 74 45 74 42 0 51-32 51-76 0-42-9-74-50-73" id="ak"/><path d="M68-36c1 33-1 63-14 82H32c9-13 17-26 17-46H33v-36h35zM33-154v-36h35v36H33" id="al"/><g id="e"><use transform="matrix(0.048148148148148155,0,0,0.048148148148148155,0,0)" xlink:href="#ag"/><use transform="matrix(0.048148148148148155,0,0,0.048148148148148155,3.8037037037037043,0)" xlink:href="#ak"/><use transform="matrix(0.048148148148148155,0,0,0.048148148148148155,13.433333333333335,0)" xlink:href="#R"/><use transform="matrix(0.048148148148148155,0,0,0.048148148148148155,23.062962962962967,0)" xlink:href="#al"/></g><path d="M177-190C167-65 218 103 67 71c-23-6-38-20-44-43l32-5c15 47 100 32 89-28v-30C133-14 115 1 83 1 29 1 15-40 15-95c0-56 16-97 71-98 29-1 48 16 59 35 1-10 0-23 2-32h30zM94-22c36 0 50-32 50-73 0-42-14-75-50-75-39 0-46 34-46 75s6 73 46 73" id="am"/><path d="M115-194c53 0 69 39 70 98 0 66-23 100-70 100C84 3 66-7 56-30L54 0H23l1-261h32v101c10-23 28-34 59-34zm-8 174c40 0 45-34 45-75 0-40-5-75-45-74-42 0-51 32-51 76 0 43 10 73 51 73" id="an"/><path d="M141-36C126-15 110 5 73 4 37 3 15-17 15-53c-1-64 63-63 125-63 3-35-9-54-41-54-24 1-41 7-42 31l-33-3c5-37 33-52 76-52 45 0 72 20 72 64v82c-1 20 7 32 28 27v20c-31 9-61-2-59-35zM48-53c0 20 12 33 32 33 41-3 63-29 60-74-43 2-92-5-92 41" id="ao"/><g id="g"><use transform="matrix(0.048148148148148155,0,0,0.048148148148148155,0,0)" xlink:href="#R"/><use transform="matrix(0.048148148148148155,0,0,0.048148148148148155,9.629629629629632,0)" xlink:href="#R"/><use transform="matrix(0.048148148148148155,0,0,0.048148148148148155,19.259259259259263,0)" xlink:href="#am"/><use transform="matrix(0.048148148148148155,0,0,0.048148148148148155,28.888888888888893,0)" xlink:href="#W"/><use transform="matrix(0.048148148148148155,0,0,0.048148148148148155,32.6925925925926,0)" xlink:href="#Y"/><use transform="matrix(0.048148148148148155,0,0,0.048148148148148155,42.32222222222223,0)" xlink:href="#an"/><use transform="matrix(0.048148148148148155,0,0,0.048148148148148155,51.951851851851856,0)" xlink:href="#ao"/><use transform="matrix(0.048148148148148155,0,0,0.048148148148148155,61.581481481481504,0)" xlink:href="#W"/></g><path d="M205 0l-28-72H64L36 0H1l101-248h38L239 0h-34zm-38-99l-47-123c-12 45-31 82-46 123h93" id="ap"/><path d="M106-169C34-169 62-67 57 0H25v-261h32l-1 103c12-21 28-36 61-36 89 0 53 116 60 194h-32v-121c2-32-8-49-39-48" id="aq"/><path d="M80-196l47-18 7 23-49 13 32 44-20 13-27-46-27 45-21-12 33-44-49-13 8-23 47 19-2-53h23" id="ar"/><g id="h"><use transform="matrix(0.048148148148148155,0,0,0.048148148148148155,0,0)" xlink:href="#ap"/><use transform="matrix(0.048148148148148155,0,0,0.048148148148148155,11.555555555555557,0)" xlink:href="#am"/><use transform="matrix(0.048148148148148155,0,0,0.048148148148148155,21.18518518518519,0)" xlink:href="#T"/><use transform="matrix(0.048148148148148155,0,0,0.048148148148148155,30.814814814814824,0)" xlink:href="#V"/><use transform="matrix(0.048148148148148155,0,0,0.048148148148148155,40.44444444444446,0)" xlink:href="#ac"/><use transform="matrix(0.048148148148148155,0,0,0.048148148148148155,45.259259259259274,0)" xlink:href="#ad"/><use transform="matrix(0.048148148148148155,0,0,0.048148148148148155,57.729629629629635,0)" xlink:href="#T"/><use transform="matrix(0.048148148148148155,0,0,0.048148148148148155,67.35925925925928,0)" xlink:href="#ag"/><use transform="matrix(0.048148148148148155,0,0,0.048148148148148155,71.16296296296298,0)" xlink:href="#am"/><use transform="matrix(0.048148148148148155,0,0,0.048148148148148155,80.79259259259261,0)" xlink:href="#aq"/><use transform="matrix(0.048148148148148155,0,0,0.048148148148148155,90.42222222222225,0)" xlink:href="#an"/><use transform="matrix(0.048148148148148155,0,0,0.048148148148148155,100.0518518518519,0)" xlink:href="#Y"/><use transform="matrix(0.048148148148148155,0,0,0.048148148148148155,109.68148148148153,0)" xlink:href="#U"/><use transform="matrix(0.048148148148148155,0,0,0.048148148148148155,115.41111111111115,0)" xlink:href="#ar"/></g><path d="M135-143c-3-34-86-38-87 0 15 53 115 12 119 90S17 21 10-45l28-5c4 36 97 45 98 0-10-56-113-15-118-90-4-57 82-63 122-42 12 7 21 19 24 35" id="as"/><g id="i"><use transform="matrix(0.048148148148148155,0,0,0.048148148148148155,0,0)" xlink:href="#ao"/><use transform="matrix(0.048148148148148155,0,0,0.048148148148148155,9.629629629629632,0)" xlink:href="#am"/><use transform="matrix(0.048148148148148155,0,0,0.048148148148148155,19.259259259259263,0)" xlink:href="#T"/><use transform="matrix(0.048148148148148155,0,0,0.048148148148148155,28.888888888888893,0)" xlink:href="#V"/><use transform="matrix(0.048148148148148155,0,0,0.048148148148148155,38.518518518518526,0)" xlink:href="#ac"/><use transform="matrix(0.048148148148148155,0,0,0.048148148148148155,43.33333333333334,0)" xlink:href="#ad"/><use transform="matrix(0.048148148148148155,0,0,0.048148148148148155,55.803703703703725,0)" xlink:href="#T"/><use transform="matrix(0.048148148148148155,0,0,0.048148148148148155,65.43333333333335,0)" xlink:href="#ag"/><use transform="matrix(0.048148148148148155,0,0,0.048148148148148155,69.23703703703706,0)" xlink:href="#am"/><use transform="matrix(0.048148148148148155,0,0,0.048148148148148155,78.86666666666669,0)" xlink:href="#aq"/><use transform="matrix(0.048148148148148155,0,0,0.048148148148148155,88.49629629629632,0)" xlink:href="#an"/><use transform="matrix(0.048148148148148155,0,0,0.048148148148148155,98.12592592592596,0)" xlink:href="#Y"/><use transform="matrix(0.048148148148148155,0,0,0.048148148148148155,107.75555555555559,0)" xlink:href="#U"/><use transform="matrix(0.048148148148148155,0,0,0.048148148148148155,113.48518518518523,0)" xlink:href="#as"/><use transform="matrix(0.048148148148148155,0,0,0.048148148148148155,122.15185185185189,0)" xlink:href="#R"/><use transform="matrix(0.048148148148148155,0,0,0.048148148148148155,131.7814814814815,0)" xlink:href="#al"/></g><path d="M30 0v-248h33v221h125V0H30" id="at"/><g id="j"><use transform="matrix(0.048148148148148155,0,0,0.048148148148148155,0,0)" xlink:href="#at"/><use transform="matrix(0.048148148148148155,0,0,0.048148148148148155,9.629629629629632,0)" xlink:href="#ag"/><use transform="matrix(0.048148148148148155,0,0,0.048148148148148155,13.433333333333335,0)" xlink:href="#V"/><use transform="matrix(0.048148148148148155,0,0,0.048148148148148155,23.062962962962967,0)" xlink:href="#T"/><use transform="matrix(0.048148148148148155,0,0,0.048148148148148155,32.6925925925926,0)" xlink:href="#ar"/></g><g id="k"><use transform="matrix(0.048148148148148155,0,0,0.048148148148148155,0,0)" xlink:href="#Y"/><use transform="matrix(0.048148148148148155,0,0,0.048148148148148155,9.629629629629632,0)" xlink:href="#U"/><use transform="matrix(0.048148148148148155,0,0,0.048148148148148155,15.359259259259261,0)" xlink:href="#X"/><use transform="matrix(0.048148148148148155,0,0,0.048148148148148155,24.02592592592593,0)" xlink:href="#ao"/><use transform="matrix(0.048148148148148155,0,0,0.048148148148148155,33.65555555555556,0)" xlink:href="#at"/><use transform="matrix(0.048148148148148155,0,0,0.048148148148148155,43.28518518518519,0)" xlink:href="#ag"/><use transform="matrix(0.048148148148148155,0,0,0.048148148148148155,47.088888888888896,0)" xlink:href="#V"/><use transform="matrix(0.048148148148148155,0,0,0.048148148148148155,56.71851851851853,0)" xlink:href="#T"/><use transform="matrix(0.048148148148148155,0,0,0.048148148148148155,66.34814814814816,0)" xlink:href="#as"/><use transform="matrix(0.048148148148148155,0,0,0.048148148148148155,75.01481481481483,0)" xlink:href="#R"/><use transform="matrix(0.048148148148148155,0,0,0.048148148148148155,84.64444444444446,0)" xlink:href="#al"/></g><path d="M24-231v-30h32v30H24zM-9 49c24 4 33-6 33-30v-209h32V24c2 40-23 58-65 49V49" id="au"/><g id="l"><use transform="matrix(0.048148148148148155,0,0,0.048148148148148155,0,0)" xlink:href="#aa"/><use transform="matrix(0.048148148148148155,0,0,0.048148148148148155,9.629629629629632,0)" xlink:href="#U"/><use transform="matrix(0.048148148148148155,0,0,0.048148148148148155,15.359259259259261,0)" xlink:href="#Y"/><use transform="matrix(0.048148148148148155,0,0,0.048148148148148155,24.988888888888894,0)" xlink:href="#au"/><use transform="matrix(0.048148148148148155,0,0,0.048148148148148155,28.792592592592598,0)" xlink:href="#at"/><use transform="matrix(0.048148148148148155,0,0,0.048148148148148155,38.42222222222223,0)" xlink:href="#ag"/><use transform="matrix(0.048148148148148155,0,0,0.048148148148148155,42.225925925925935,0)" xlink:href="#V"/><use transform="matrix(0.048148148148148155,0,0,0.048148148148148155,51.85555555555556,0)" xlink:href="#T"/><use transform="matrix(0.048148148148148155,0,0,0.048148148148148155,61.4851851851852,0)" xlink:href="#as"/><use transform="matrix(0.048148148148148155,0,0,0.048148148148148155,70.15185185185187,0)" xlink:href="#R"/><use transform="matrix(0.048148148148148155,0,0,0.048148148148148155,79.7814814814815,0)" xlink:href="#al"/></g><path d="M101-251c82-7 93 87 43 132L82-64C71-53 59-42 53-27h129V0H18c2-99 128-94 128-182 0-28-16-43-45-43s-46 15-49 41l-32-3c6-41 34-60 81-64" id="av"/><g id="m"><use transform="matrix(0.048148148148148155,0,0,0.048148148148148155,0,0)" xlink:href="#af"/><use transform="matrix(0.048148148148148155,0,0,0.048148148148148155,10.592592592592593,0)" xlink:href="#T"/><use transform="matrix(0.048148148148148155,0,0,0.048148148148148155,20.222222222222225,0)" xlink:href="#X"/><use transform="matrix(0.048148148148148155,0,0,0.048148148148148155,28.888888888888893,0)" xlink:href="#ac"/><use transform="matrix(0.048148148148148155,0,0,0.048148148148148155,33.70370370370371,0)" xlink:href="#Y"/><use transform="matrix(0.048148148148148155,0,0,0.048148148148148155,43.33333333333334,0)" xlink:href="#U"/><use transform="matrix(0.048148148148148155,0,0,0.048148148148148155,49.06296296296297,0)" xlink:href="#av"/></g><g id="n"><use transform="matrix(0.048148148148148155,0,0,0.048148148148148155,0,0)" xlink:href="#aa"/><use transform="matrix(0.048148148148148155,0,0,0.048148148148148155,9.629629629629632,0)" xlink:href="#Y"/><use transform="matrix(0.048148148148148155,0,0,0.048148148148148155,19.259259259259263,0)" xlink:href="#as"/><use transform="matrix(0.048148148148148155,0,0,0.048148148148148155,27.92592592592593,0)" xlink:href="#ag"/><use transform="matrix(0.048148148148148155,0,0,0.048148148148148155,31.729629629629635,0)" xlink:href="#ac"/><use transform="matrix(0.048148148148148155,0,0,0.048148148148148155,36.54444444444445,0)" xlink:href="#ag"/><use transform="matrix(0.048148148148148155,0,0,0.048148148148148155,40.348148148148155,0)" xlink:href="#Y"/><use transform="matrix(0.048148148148148155,0,0,0.048148148148148155,49.97777777777779,0)" xlink:href="#V"/><use transform="matrix(0.048148148148148155,0,0,0.048148148148148155,59.60740740740743,0)" xlink:href="#R"/><use transform="matrix(0.048148148148148155,0,0,0.048148148148148155,69.23703703703706,0)" xlink:href="#al"/></g><path d="M108 0H70L1-190h34L89-25l56-165h34" id="aw"/><g id="o"><use transform="matrix(0.048148148148148155,0,0,0.048148148148148155,0,0)" xlink:href="#aw"/><use transform="matrix(0.048148148148148155,0,0,0.048148148148148155,8.666666666666668,0)" xlink:href="#T"/><use transform="matrix(0.048148148148148155,0,0,0.048148148148148155,18.296296296296298,0)" xlink:href="#W"/><use transform="matrix(0.048148148148148155,0,0,0.048148148148148155,22.1,0)" xlink:href="#Y"/><use transform="matrix(0.048148148148148155,0,0,0.048148148148148155,31.729629629629635,0)" xlink:href="#X"/><use transform="matrix(0.048148148148148155,0,0,0.048148148148148155,40.3962962962963,0)" xlink:href="#ag"/><use transform="matrix(0.048148148148148155,0,0,0.048148148148148155,44.2,0)" xlink:href="#ac"/><use transform="matrix(0.048148148148148155,0,0,0.048148148148148155,49.01481481481482,0)" xlink:href="#ah"/><use transform="matrix(0.048148148148148155,0,0,0.048148148148148155,57.68148148148148,0)" xlink:href="#R"/><use transform="matrix(0.048148148148148155,0,0,0.048148148148148155,67.31111111111112,0)" xlink:href="#al"/></g><path d="M101-234c-31-9-42 10-38 44h38v23H63V0H32v-167H5v-23h27c-7-52 17-82 69-68v24" id="ax"/><g id="p"><use transform="matrix(0.048148148148148155,0,0,0.048148148148148155,0,0)" xlink:href="#aa"/><use transform="matrix(0.048148148148148155,0,0,0.048148148148148155,9.629629629629632,0)" xlink:href="#U"/><use transform="matrix(0.048148148148148155,0,0,0.048148148148148155,15.359259259259261,0)" xlink:href="#T"/><use transform="matrix(0.048148148148148155,0,0,0.048148148148148155,24.988888888888894,0)" xlink:href="#ax"/><use transform="matrix(0.048148148148148155,0,0,0.048148148148148155,29.803703703703714,0)" xlink:href="#af"/><use transform="matrix(0.048148148148148155,0,0,0.048148148148148155,40.396296296296306,0)" xlink:href="#T"/><use transform="matrix(0.048148148148148155,0,0,0.048148148148148155,50.02592592592595,0)" xlink:href="#W"/><use transform="matrix(0.048148148148148155,0,0,0.048148148148148155,53.82962962962965,0)" xlink:href="#Y"/><use transform="matrix(0.048148148148148155,0,0,0.048148148148148155,63.45925925925928,0)" xlink:href="#X"/><use transform="matrix(0.048148148148148155,0,0,0.048148148148148155,72.12592592592594,0)" xlink:href="#ag"/><use transform="matrix(0.048148148148148155,0,0,0.048148148148148155,75.92962962962964,0)" xlink:href="#ac"/><use transform="matrix(0.048148148148148155,0,0,0.048148148148148155,80.74444444444445,0)" xlink:href="#ah"/><use transform="matrix(0.048148148148148155,0,0,0.048148148148148155,89.41111111111113,0)" xlink:href="#R"/><use transform="matrix(0.048148148148148155,0,0,0.048148148148148155,99.04074074074076,0)" xlink:href="#al"/></g><g id="q"><use transform="matrix(0.048148148148148155,0,0,0.048148148148148155,0,0)" xlink:href="#V"/><use transform="matrix(0.048148148148148155,0,0,0.048148148148148155,9.629629629629632,0)" xlink:href="#T"/><use transform="matrix(0.048148148148148155,0,0,0.048148148148148155,19.259259259259263,0)" xlink:href="#ae"/><use transform="matrix(0.048148148148148155,0,0,0.048148148148148155,31.729629629629635,0)" xlink:href="#af"/><use transform="matrix(0.048148148148148155,0,0,0.048148148148148155,42.32222222222223,0)" xlink:href="#T"/><use transform="matrix(0.048148148148148155,0,0,0.048148148148148155,51.951851851851856,0)" xlink:href="#W"/><use transform="matrix(0.048148148148148155,0,0,0.048148148148148155,55.75555555555557,0)" xlink:href="#Y"/><use transform="matrix(0.048148148148148155,0,0,0.048148148148148155,65.3851851851852,0)" xlink:href="#X"/><use transform="matrix(0.048148148148148155,0,0,0.048148148148148155,74.05185185185186,0)" xlink:href="#ag"/><use transform="matrix(0.048148148148148155,0,0,0.048148148148148155,77.85555555555557,0)" xlink:href="#ac"/><use transform="matrix(0.048148148148148155,0,0,0.048148148148148155,82.67037037037038,0)" xlink:href="#ah"/><use transform="matrix(0.048148148148148155,0,0,0.048148148148148155,91.33703703703705,0)" xlink:href="#R"/><use transform="matrix(0.048148148148148155,0,0,0.048148148148148155,100.96666666666668,0)" xlink:href="#al"/></g><g id="r"><use transform="matrix(0.048148148148148155,0,0,0.048148148148148155,0,0)" xlink:href="#V"/><use transform="matrix(0.048148148148148155,0,0,0.048148148148148155,9.629629629629632,0)" xlink:href="#ab"/><use transform="matrix(0.048148148148148155,0,0,0.048148148148148155,19.259259259259263,0)" xlink:href="#Z"/><use transform="matrix(0.048148148148148155,0,0,0.048148148148148155,33.655555555555566,0)" xlink:href="#ap"/><use transform="matrix(0.048148148148148155,0,0,0.048148148148148155,45.21111111111112,0)" xlink:href="#am"/><use transform="matrix(0.048148148148148155,0,0,0.048148148148148155,54.84074074074076,0)" xlink:href="#T"/><use transform="matrix(0.048148148148148155,0,0,0.048148148148148155,64.47037037037039,0)" xlink:href="#V"/><use transform="matrix(0.048148148148148155,0,0,0.048148148148148155,74.10000000000002,0)" xlink:href="#ac"/><use transform="matrix(0.048148148148148155,0,0,0.048148148148148155,78.91481481481483,0)" xlink:href="#ad"/><use transform="matrix(0.048148148148148155,0,0,0.048148148148148155,91.38518518518521,0)" xlink:href="#T"/><use transform="matrix(0.048148148148148155,0,0,0.048148148148148155,101.01481481481486,0)" xlink:href="#ag"/><use transform="matrix(0.048148148148148155,0,0,0.048148148148148155,104.81851851851853,0)" xlink:href="#am"/><use transform="matrix(0.048148148148148155,0,0,0.048148148148148155,114.44814814814819,0)" xlink:href="#aq"/><use transform="matrix(0.048148148148148155,0,0,0.048148148148148155,124.07777777777781,0)" xlink:href="#an"/><use transform="matrix(0.048148148148148155,0,0,0.048148148148148155,133.70740740740743,0)" xlink:href="#Y"/><use transform="matrix(0.048148148148148155,0,0,0.048148148148148155,143.33703703703705,0)" xlink:href="#U"/><use transform="matrix(0.048148148148148155,0,0,0.048148148148148155,149.0666666666667,0)" xlink:href="#as"/><use transform="matrix(0.048148148148148155,0,0,0.048148148148148155,157.73333333333335,0)" xlink:href="#R"/><use transform="matrix(0.048148148148148155,0,0,0.048148148148148155,167.36296296296297,0)" xlink:href="#al"/></g><path d="M140-251c81 0 123 46 123 126C263-46 219 4 140 4 59 4 17-45 17-125s42-126 123-126zm0 227c63 0 89-41 89-101s-29-99-89-99c-61 0-89 39-89 99S79-25 140-24" id="ay"/><g id="s"><use transform="matrix(0.048148148148148155,0,0,0.048148148148148155,0,0)" xlink:href="#V"/><use transform="matrix(0.048148148148148155,0,0,0.048148148148148155,9.629629629629632,0)" xlink:href="#ab"/><use transform="matrix(0.048148148148148155,0,0,0.048148148148148155,19.259259259259263,0)" xlink:href="#Z"/><use transform="matrix(0.048148148148148155,0,0,0.048148148148148155,33.655555555555566,0)" xlink:href="#ay"/><use transform="matrix(0.048148148148148155,0,0,0.048148148148148155,47.13703703703705,0)" xlink:href="#U"/><use transform="matrix(0.048148148148148155,0,0,0.048148148148148155,52.866666666666674,0)" xlink:href="#X"/><use transform="matrix(0.048148148148148155,0,0,0.048148148148148155,61.533333333333346,0)" xlink:href="#ao"/><use transform="matrix(0.048148148148148155,0,0,0.048148148148148155,71.16296296296298,0)" xlink:href="#at"/><use transform="matrix(0.048148148148148155,0,0,0.048148148148148155,80.79259259259261,0)" xlink:href="#ag"/><use transform="matrix(0.048148148148148155,0,0,0.048148148148148155,84.59629629629632,0)" xlink:href="#V"/><use transform="matrix(0.048148148148148155,0,0,0.048148148148148155,94.22592592592595,0)" xlink:href="#T"/><use transform="matrix(0.048148148148148155,0,0,0.048148148148148155,103.8555555555556,0)" xlink:href="#as"/><use transform="matrix(0.048148148148148155,0,0,0.048148148148148155,112.52222222222225,0)" xlink:href="#R"/><use transform="matrix(0.048148148148148155,0,0,0.048148148148148155,122.15185185185189,0)" xlink:href="#al"/></g><g id="t"><use transform="matrix(0.048148148148148155,0,0,0.048148148148148155,0,0)" xlink:href="#V"/><use transform="matrix(0.048148148148148155,0,0,0.048148148148148155,9.629629629629632,0)" xlink:href="#ab"/><use transform="matrix(0.048148148148148155,0,0,0.048148148148148155,19.259259259259263,0)" xlink:href="#Z"/><use transform="matrix(0.048148148148148155,0,0,0.048148148148148155,33.655555555555566,0)" xlink:href="#ay"/><use transform="matrix(0.048148148148148155,0,0,0.048148148148148155,47.13703703703705,0)" xlink:href="#an"/><use transform="matrix(0.048148148148148155,0,0,0.048148148148148155,56.76666666666667,0)" xlink:href="#as"/><use transform="matrix(0.048148148148148155,0,0,0.048148148148148155,65.43333333333335,0)" xlink:href="#ac"/><use transform="matrix(0.048148148148148155,0,0,0.048148148148148155,70.24814814814816,0)" xlink:href="#ao"/><use transform="matrix(0.048148148148148155,0,0,0.048148148148148155,79.8777777777778,0)" xlink:href="#X"/><use transform="matrix(0.048148148148148155,0,0,0.048148148148148155,88.54444444444447,0)" xlink:href="#W"/><use transform="matrix(0.048148148148148155,0,0,0.048148148148148155,92.34814814814817,0)" xlink:href="#T"/><use transform="matrix(0.048148148148148155,0,0,0.048148148148148155,101.97777777777779,0)" xlink:href="#ad"/><use transform="matrix(0.048148148148148155,0,0,0.048148148148148155,114.44814814814819,0)" xlink:href="#T"/><use transform="matrix(0.048148148148148155,0,0,0.048148148148148155,124.07777777777781,0)" xlink:href="#ag"/><use transform="matrix(0.048148148148148155,0,0,0.048148148148148155,127.88148148148152,0)" xlink:href="#am"/><use transform="matrix(0.048148148148148155,0,0,0.048148148148148155,137.51111111111115,0)" xlink:href="#aq"/><use transform="matrix(0.048148148148148155,0,0,0.048148148148148155,147.14074074074077,0)" xlink:href="#an"/><use transform="matrix(0.048148148148148155,0,0,0.048148148148148155,156.7703703703704,0)" xlink:href="#Y"/><use transform="matrix(0.048148148148148155,0,0,0.048148148148148155,166.4,0)" xlink:href="#U"/><use transform="matrix(0.048148148148148155,0,0,0.048148148148148155,172.12962962962965,0)" xlink:href="#as"/><use transform="matrix(0.048148148148148155,0,0,0.048148148148148155,180.7962962962963,0)" xlink:href="#R"/><use transform="matrix(0.048148148148148155,0,0,0.048148148148148155,190.42592592592592,0)" xlink:href="#al"/></g><path d="M141 0L90-78 38 0H4l68-98-65-92h35l48 74 47-74h35l-64 92 68 98h-35" id="az"/><g id="u"><use transform="matrix(0.048148148148148155,0,0,0.048148148148148155,0,0)" xlink:href="#Z"/><use transform="matrix(0.048148148148148155,0,0,0.048148148148148155,14.396296296296299,0)" xlink:href="#ao"/><use transform="matrix(0.048148148148148155,0,0,0.048148148148148155,24.025925925925932,0)" xlink:href="#az"/><use transform="matrix(0.048148148148148155,0,0,0.048148148148148155,32.692592592592604,0)" xlink:href="#ay"/><use transform="matrix(0.048148148148148155,0,0,0.048148148148148155,46.174074074074085,0)" xlink:href="#an"/><use transform="matrix(0.048148148148148155,0,0,0.048148148148148155,55.803703703703725,0)" xlink:href="#as"/><use transform="matrix(0.048148148148148155,0,0,0.048148148148148155,64.47037037037039,0)" xlink:href="#ac"/><use transform="matrix(0.048148148148148155,0,0,0.048148148148148155,69.2851851851852,0)" xlink:href="#ao"/><use transform="matrix(0.048148148148148155,0,0,0.048148148148148155,78.91481481481483,0)" xlink:href="#X"/><use transform="matrix(0.048148148148148155,0,0,0.048148148148148155,87.5814814814815,0)" xlink:href="#W"/><use transform="matrix(0.048148148148148155,0,0,0.048148148148148155,91.38518518518521,0)" xlink:href="#T"/><use transform="matrix(0.048148148148148155,0,0,0.048148148148148155,101.01481481481486,0)" xlink:href="#ad"/><use transform="matrix(0.048148148148148155,0,0,0.048148148148148155,113.48518518518523,0)" xlink:href="#T"/><use transform="matrix(0.048148148148148155,0,0,0.048148148148148155,123.11481481481485,0)" xlink:href="#ag"/><use transform="matrix(0.048148148148148155,0,0,0.048148148148148155,126.91851851851855,0)" xlink:href="#am"/><use transform="matrix(0.048148148148148155,0,0,0.048148148148148155,136.5481481481482,0)" xlink:href="#aq"/><use transform="matrix(0.048148148148148155,0,0,0.048148148148148155,146.1777777777778,0)" xlink:href="#an"/><use transform="matrix(0.048148148148148155,0,0,0.048148148148148155,155.80740740740742,0)" xlink:href="#Y"/><use transform="matrix(0.048148148148148155,0,0,0.048148148148148155,165.43703703703704,0)" xlink:href="#U"/><use transform="matrix(0.048148148148148155,0,0,0.048148148148148155,171.16666666666669,0)" xlink:href="#as"/><use transform="matrix(0.048148148148148155,0,0,0.048148148148148155,179.83333333333334,0)" xlink:href="#R"/><use transform="matrix(0.048148148148148155,0,0,0.048148148148148155,189.46296296296296,0)" xlink:href="#al"/></g><g id="v"><use transform="matrix(0.048148148148148155,0,0,0.048148148148148155,0,0)" xlink:href="#ax"/><use transform="matrix(0.048148148148148155,0,0,0.048148148148148155,4.814814814814816,0)" xlink:href="#W"/><use transform="matrix(0.048148148148148155,0,0,0.048148148148148155,8.61851851851852,0)" xlink:href="#Y"/><use transform="matrix(0.048148148148148155,0,0,0.048148148148148155,18.248148148148154,0)" xlink:href="#ao"/><use transform="matrix(0.048148148148148155,0,0,0.048148148148148155,27.877777777777787,0)" xlink:href="#ac"/></g><path d="M185-189c-5-48-123-54-124 2 14 75 158 14 163 119 3 78-121 87-175 55-17-10-28-26-33-46l33-7c5 56 141 63 141-1 0-78-155-14-162-118-5-82 145-84 179-34 5 7 8 16 11 25" id="aA"/><g id="w"><use transform="matrix(0.048148148148148155,0,0,0.048148148148148155,0,0)" xlink:href="#Z"/><use transform="matrix(0.048148148148148155,0,0,0.048148148148148155,14.396296296296299,0)" xlink:href="#ao"/><use transform="matrix(0.048148148148148155,0,0,0.048148148148148155,24.025925925925932,0)" xlink:href="#az"/><use transform="matrix(0.048148148148148155,0,0,0.048148148148148155,32.692592592592604,0)" xlink:href="#aA"/><use transform="matrix(0.048148148148148155,0,0,0.048148148148148155,44.24814814814816,0)" xlink:href="#aa"/><use transform="matrix(0.048148148148148155,0,0,0.048148148148148155,53.877777777777794,0)" xlink:href="#T"/><use transform="matrix(0.048148148148148155,0,0,0.048148148148148155,63.50740740740743,0)" xlink:href="#T"/><use transform="matrix(0.048148148148148155,0,0,0.048148148148148155,73.13703703703706,0)" xlink:href="#ak"/><use transform="matrix(0.048148148148148155,0,0,0.048148148148148155,82.7666666666667,0)" xlink:href="#R"/><use transform="matrix(0.048148148148148155,0,0,0.048148148148148155,92.39629629629633,0)" xlink:href="#al"/></g><g id="x"><use transform="matrix(0.048148148148148155,0,0,0.048148148148148155,0,0)" xlink:href="#Z"/><use transform="matrix(0.048148148148148155,0,0,0.048148148148148155,14.396296296296299,0)" xlink:href="#ao"/><use transform="matrix(0.048148148148148155,0,0,0.048148148148148155,24.025925925925932,0)" xlink:href="#az"/><use transform="matrix(0.048148148148148155,0,0,0.048148148148148155,32.692592592592604,0)" xlink:href="#ad"/><use transform="matrix(0.048148148148148155,0,0,0.048148148148148155,45.16296296296298,0)" xlink:href="#T"/><use transform="matrix(0.048148148148148155,0,0,0.048148148148148155,54.79259259259261,0)" xlink:href="#ag"/><use transform="matrix(0.048148148148148155,0,0,0.048148148148148155,58.596296296296316,0)" xlink:href="#am"/><use transform="matrix(0.048148148148148155,0,0,0.048148148148148155,68.22592592592595,0)" xlink:href="#aq"/><use transform="matrix(0.048148148148148155,0,0,0.048148148148148155,77.85555555555558,0)" xlink:href="#an"/><use transform="matrix(0.048148148148148155,0,0,0.048148148148148155,87.48518518518522,0)" xlink:href="#Y"/><use transform="matrix(0.048148148148148155,0,0,0.048148148148148155,97.11481481481485,0)" xlink:href="#U"/><use transform="matrix(0.048148148148148155,0,0,0.048148148148148155,102.84444444444448,0)" xlink:href="#as"/><use transform="matrix(0.048148148148148155,0,0,0.048148148148148155,111.51111111111115,0)" xlink:href="#R"/><use transform="matrix(0.048148148148148155,0,0,0.048148148148148155,121.14074074074078,0)" xlink:href="#al"/></g><g id="y"><use transform="matrix(0.048148148148148155,0,0,0.048148148148148155,0,0)" xlink:href="#U"/><use transform="matrix(0.048148148148148155,0,0,0.048148148148148155,5.72962962962963,0)" xlink:href="#ao"/><use transform="matrix(0.048148148148148155,0,0,0.048148148148148155,15.359259259259261,0)" xlink:href="#ak"/><use transform="matrix(0.048148148148148155,0,0,0.048148148148148155,24.988888888888894,0)" xlink:href="#ag"/><use transform="matrix(0.048148148148148155,0,0,0.048148148148148155,28.792592592592598,0)" xlink:href="#ab"/><use transform="matrix(0.048148148148148155,0,0,0.048148148148148155,38.42222222222223,0)" xlink:href="#as"/><use transform="matrix(0.048148148148148155,0,0,0.048148148148148155,47.0888888888889,0)" xlink:href="#R"/><use transform="matrix(0.048148148148148155,0,0,0.048148148148148155,56.718518518518536,0)" xlink:href="#al"/></g><path d="M197 0v-115H63V0H30v-248h33v105h134v-105h34V0h-34" id="aB"/><path d="M9 0v-24l116-142H16v-24h144v24L44-24h123V0H9" id="aC"/><g id="z"><use transform="matrix(0.048148148148148155,0,0,0.048148148148148155,0,0)" xlink:href="#ac"/><use transform="matrix(0.048148148148148155,0,0,0.048148148148148155,4.814814814814816,0)" xlink:href="#ag"/><use transform="matrix(0.048148148148148155,0,0,0.048148148148148155,8.61851851851852,0)" xlink:href="#Z"/><use transform="matrix(0.048148148148148155,0,0,0.048148148148148155,23.01481481481482,0)" xlink:href="#T"/><use transform="matrix(0.048148148148148155,0,0,0.048148148148148155,32.64444444444445,0)" xlink:href="#aB"/><use transform="matrix(0.048148148148148155,0,0,0.048148148148148155,45.11481481481482,0)" xlink:href="#Y"/><use transform="matrix(0.048148148148148155,0,0,0.048148148148148155,54.744444444444454,0)" xlink:href="#U"/><use transform="matrix(0.048148148148148155,0,0,0.048148148148148155,60.47407407407408,0)" xlink:href="#ag"/><use transform="matrix(0.048148148148148155,0,0,0.048148148148148155,64.27777777777779,0)" xlink:href="#aC"/><use transform="matrix(0.048148148148148155,0,0,0.048148148148148155,72.94444444444446,0)" xlink:href="#Y"/><use transform="matrix(0.048148148148148155,0,0,0.048148148148148155,82.57407407407409,0)" xlink:href="#V"/><use transform="matrix(0.048148148148148155,0,0,0.048148148148148155,92.20370370370372,0)" xlink:href="#R"/><use transform="matrix(0.048148148148148155,0,0,0.048148148148148155,101.83333333333334,0)" xlink:href="#al"/></g><g id="A"><use transform="matrix(0.048148148148148155,0,0,0.048148148148148155,0,0)" xlink:href="#ac"/><use transform="matrix(0.048148148148148155,0,0,0.048148148148148155,4.814814814814816,0)" xlink:href="#ag"/><use transform="matrix(0.048148148148148155,0,0,0.048148148148148155,8.61851851851852,0)" xlink:href="#Z"/><use transform="matrix(0.048148148148148155,0,0,0.048148148148148155,23.01481481481482,0)" xlink:href="#T"/><use transform="matrix(0.048148148148148155,0,0,0.048148148148148155,32.64444444444445,0)" xlink:href="#aB"/><use transform="matrix(0.048148148148148155,0,0,0.048148148148148155,45.11481481481482,0)" xlink:href="#Y"/><use transform="matrix(0.048148148148148155,0,0,0.048148148148148155,54.744444444444454,0)" xlink:href="#U"/><use transform="matrix(0.048148148148148155,0,0,0.048148148148148155,60.47407407407408,0)" xlink:href="#ag"/><use transform="matrix(0.048148148148148155,0,0,0.048148148148148155,64.27777777777779,0)" xlink:href="#aC"/><use transform="matrix(0.048148148148148155,0,0,0.048148148148148155,72.94444444444446,0)" xlink:href="#Y"/><use transform="matrix(0.048148148148148155,0,0,0.048148148148148155,82.57407407407409,0)" xlink:href="#V"/><use transform="matrix(0.048148148148148155,0,0,0.048148148148148155,92.20370370370372,0)" xlink:href="#ay"/><use transform="matrix(0.048148148148148155,0,0,0.048148148148148155,105.6851851851852,0)" xlink:href="#an"/><use transform="matrix(0.048148148148148155,0,0,0.048148148148148155,115.31481481481484,0)" xlink:href="#as"/><use transform="matrix(0.048148148148148155,0,0,0.048148148148148155,123.9814814814815,0)" xlink:href="#ac"/><use transform="matrix(0.048148148148148155,0,0,0.048148148148148155,128.79629629629633,0)" xlink:href="#R"/><use transform="matrix(0.048148148148148155,0,0,0.048148148148148155,138.42592592592595,0)" xlink:href="#al"/></g><path d="M30-248c118-7 216 8 213 122C240-48 200 0 122 0H30v-248zM63-27c89 8 146-16 146-99s-60-101-146-95v194" id="aD"/><g id="B"><use transform="matrix(0.048148148148148155,0,0,0.048148148148148155,0,0)" xlink:href="#V"/><use transform="matrix(0.048148148148148155,0,0,0.048148148148148155,9.629629629629632,0)" xlink:href="#T"/><use transform="matrix(0.048148148148148155,0,0,0.048148148148148155,19.259259259259263,0)" xlink:href="#ag"/><use transform="matrix(0.048148148148148155,0,0,0.048148148148148155,23.062962962962967,0)" xlink:href="#am"/><use transform="matrix(0.048148148148148155,0,0,0.048148148148148155,32.6925925925926,0)" xlink:href="#aq"/><use transform="matrix(0.048148148148148155,0,0,0.048148148148148155,42.32222222222223,0)" xlink:href="#an"/><use transform="matrix(0.048148148148148155,0,0,0.048148148148148155,51.951851851851856,0)" xlink:href="#Y"/><use transform="matrix(0.048148148148148155,0,0,0.048148148148148155,61.581481481481504,0)" xlink:href="#U"/><use transform="matrix(0.048148148148148155,0,0,0.048148148148148155,67.31111111111113,0)" xlink:href="#aD"/><use transform="matrix(0.048148148148148155,0,0,0.048148148148148155,79.7814814814815,0)" xlink:href="#ag"/><use transform="matrix(0.048148148148148155,0,0,0.048148148148148155,83.58518518518521,0)" xlink:href="#as"/><use transform="matrix(0.048148148148148155,0,0,0.048148148148148155,92.25185185185188,0)" xlink:href="#ac"/><use transform="matrix(0.048148148148148155,0,0,0.048148148148148155,97.06666666666669,0)" xlink:href="#R"/><use transform="matrix(0.048148148148148155,0,0,0.048148148148148155,106.69629629629634,0)" xlink:href="#al"/></g><g id="C"><use transform="matrix(0.07407407407407408,0,0,0.07407407407407408,0,0)" xlink:href="#as"/><use transform="matrix(0.07407407407407408,0,0,0.07407407407407408,13.333333333333336,0)" xlink:href="#ac"/><use transform="matrix(0.07407407407407408,0,0,0.07407407407407408,20.740740740740744,0)" xlink:href="#U"/><use transform="matrix(0.07407407407407408,0,0,0.07407407407407408,29.55555555555556,0)" xlink:href="#ab"/><use transform="matrix(0.07407407407407408,0,0,0.07407407407407408,44.37037037037039,0)" xlink:href="#X"/><use transform="matrix(0.07407407407407408,0,0,0.07407407407407408,57.70370370370372,0)" xlink:href="#ac"/></g><g id="D"><use transform="matrix(0.07407407407407408,0,0,0.07407407407407408,0,0)" xlink:href="#ap"/><use transform="matrix(0.07407407407407408,0,0,0.07407407407407408,17.77777777777778,0)" xlink:href="#am"/><use transform="matrix(0.07407407407407408,0,0,0.07407407407407408,32.592592592592595,0)" xlink:href="#T"/><use transform="matrix(0.07407407407407408,0,0,0.07407407407407408,47.40740740740741,0)" xlink:href="#V"/><use transform="matrix(0.07407407407407408,0,0,0.07407407407407408,62.22222222222223,0)" xlink:href="#ac"/><use transform="matrix(0.07407407407407408,0,0,0.07407407407407408,69.62962962962963,0)" xlink:href="#R"/></g><path d="M30 0v-248h187v28H63v79h144v27H63v87h162V0H30" id="aE"/><path d="M33 0v-248h34V0H33" id="aF"/><path d="M212-179c-10-28-35-45-73-45-59 0-87 40-87 99 0 60 29 101 89 101 43 0 62-24 78-52l27 14C228-24 195 4 139 4 59 4 22-46 18-125c-6-104 99-153 187-111 19 9 31 26 39 46" id="aG"/><g id="E"><use transform="matrix(0.1111111111111111,0,0,0.1111111111111111,0,0)" xlink:href="#aD"/><use transform="matrix(0.1111111111111111,0,0,0.1111111111111111,28.777777777777775,0)" xlink:href="#aE"/><use transform="matrix(0.1111111111111111,0,0,0.1111111111111111,55.44444444444444,0)" xlink:href="#af"/><use transform="matrix(0.1111111111111111,0,0,0.1111111111111111,82.11111111111111,0)" xlink:href="#aF"/><use transform="matrix(0.1111111111111111,0,0,0.1111111111111111,93.22222222222223,0)" xlink:href="#aG"/><use transform="matrix(0.1111111111111111,0,0,0.1111111111111111,122,0)" xlink:href="#aE"/></g><g id="F"><use transform="matrix(0.05,0,0,0.05,0,0)" xlink:href="#X"/><use transform="matrix(0.05,0,0,0.05,9,0)" xlink:href="#Y"/><use transform="matrix(0.05,0,0,0.05,19,0)" xlink:href="#Z"/><use transform="matrix(0.05,0,0,0.05,33.95,0)" xlink:href="#aa"/><use transform="matrix(0.05,0,0,0.05,43.95,0)" xlink:href="#ab"/><use transform="matrix(0.05,0,0,0.05,53.95,0)" xlink:href="#ac"/><use transform="matrix(0.05,0,0,0.05,58.95,0)" xlink:href="#T"/><use transform="matrix(0.05,0,0,0.05,68.95,0)" xlink:href="#ap"/><use transform="matrix(0.05,0,0,0.05,80.95,0)" xlink:href="#am"/><use transform="matrix(0.05,0,0,0.05,90.95,0)" xlink:href="#T"/><use transform="matrix(0.05,0,0,0.05,100.95,0)" xlink:href="#V"/><use transform="matrix(0.05,0,0,0.05,110.95,0)" xlink:href="#ac"/><use transform="matrix(0.05,0,0,0.05,115.95,0)" xlink:href="#ad"/><use transform="matrix(0.05,0,0,0.05,128.9,0)" xlink:href="#T"/><use transform="matrix(0.05,0,0,0.05,138.9,0)" xlink:href="#ag"/><use transform="matrix(0.05,0,0,0.05,142.85,0)" xlink:href="#am"/><use transform="matrix(0.05,0,0,0.05,152.85,0)" xlink:href="#aq"/><use transform="matrix(0.05,0,0,0.05,162.85,0)" xlink:href="#an"/><use transform="matrix(0.05,0,0,0.05,172.85,0)" xlink:href="#Y"/><use transform="matrix(0.05,0,0,0.05,182.85,0)" xlink:href="#U"/><use transform="matrix(0.05,0,0,0.05,188.79999999999998,0)" xlink:href="#as"/><use transform="matrix(0.05,0,0,0.05,197.79999999999998,0)" xlink:href="#ai"/><use transform="matrix(0.05,0,0,0.05,203.74999999999997,0)" xlink:href="#aj"/></g><g id="G"><use transform="matrix(0.05,0,0,0.05,0,0)" xlink:href="#ap"/><use transform="matrix(0.05,0,0,0.05,12,0)" xlink:href="#am"/><use transform="matrix(0.05,0,0,0.05,22,0)" xlink:href="#T"/><use transform="matrix(0.05,0,0,0.05,32,0)" xlink:href="#V"/><use transform="matrix(0.05,0,0,0.05,42,0)" xlink:href="#ac"/><use transform="matrix(0.05,0,0,0.05,47,0)" xlink:href="#ad"/><use transform="matrix(0.05,0,0,0.05,59.95,0)" xlink:href="#T"/><use transform="matrix(0.05,0,0,0.05,69.95,0)" xlink:href="#ag"/><use transform="matrix(0.05,0,0,0.05,73.9,0)" xlink:href="#am"/><use transform="matrix(0.05,0,0,0.05,83.9,0)" xlink:href="#aq"/><use transform="matrix(0.05,0,0,0.05,93.9,0)" xlink:href="#an"/><use transform="matrix(0.05,0,0,0.05,103.9,0)" xlink:href="#Y"/><use transform="matrix(0.05,0,0,0.05,113.9,0)" xlink:href="#U"/><use transform="matrix(0.05,0,0,0.05,119.85000000000001,0)" xlink:href="#ar"/></g><g id="H"><use transform="matrix(0.05,0,0,0.05,0,0)" xlink:href="#ao"/><use transform="matrix(0.05,0,0,0.05,10,0)" xlink:href="#am"/><use transform="matrix(0.05,0,0,0.05,20,0)" xlink:href="#T"/><use transform="matrix(0.05,0,0,0.05,30,0)" xlink:href="#V"/><use transform="matrix(0.05,0,0,0.05,40,0)" xlink:href="#ac"/><use transform="matrix(0.05,0,0,0.05,45,0)" xlink:href="#ad"/><use transform="matrix(0.05,0,0,0.05,57.95,0)" xlink:href="#T"/><use transform="matrix(0.05,0,0,0.05,67.95,0)" xlink:href="#ag"/><use transform="matrix(0.05,0,0,0.05,71.9,0)" xlink:href="#am"/><use transform="matrix(0.05,0,0,0.05,81.9,0)" xlink:href="#aq"/><use transform="matrix(0.05,0,0,0.05,91.9,0)" xlink:href="#an"/><use transform="matrix(0.05,0,0,0.05,101.9,0)" xlink:href="#Y"/><use transform="matrix(0.05,0,0,0.05,111.9,0)" xlink:href="#U"/><use transform="matrix(0.05,0,0,0.05,117.85000000000001,0)" xlink:href="#as"/><use transform="matrix(0.05,0,0,0.05,126.85000000000001,0)" xlink:href="#R"/></g><g id="I"><use transform="matrix(0.05,0,0,0.05,0,0)" xlink:href="#at"/><use transform="matrix(0.05,0,0,0.05,10,0)" xlink:href="#ag"/><use transform="matrix(0.05,0,0,0.05,13.949999999999998,0)" xlink:href="#V"/><use transform="matrix(0.05,0,0,0.05,23.95,0)" xlink:href="#T"/><use transform="matrix(0.05,0,0,0.05,33.95,0)" xlink:href="#ar"/></g><g id="J"><use transform="matrix(0.05,0,0,0.05,0,0)" xlink:href="#Y"/><use transform="matrix(0.05,0,0,0.05,10,0)" xlink:href="#U"/><use transform="matrix(0.05,0,0,0.05,15.949999999999998,0)" xlink:href="#X"/><use transform="matrix(0.05,0,0,0.05,24.95,0)" xlink:href="#ao"/><use transform="matrix(0.05,0,0,0.05,34.95,0)" xlink:href="#at"/><use transform="matrix(0.05,0,0,0.05,44.95,0)" xlink:href="#ag"/><use transform="matrix(0.05,0,0,0.05,48.900000000000006,0)" xlink:href="#V"/><use transform="matrix(0.05,0,0,0.05,58.900000000000006,0)" xlink:href="#T"/><use transform="matrix(0.05,0,0,0.05,68.9,0)" xlink:href="#as"/><use transform="matrix(0.05,0,0,0.05,77.9,0)" xlink:href="#R"/></g><g id="K"><use transform="matrix(0.05,0,0,0.05,0,0)" xlink:href="#aa"/><use transform="matrix(0.05,0,0,0.05,10,0)" xlink:href="#U"/><use transform="matrix(0.05,0,0,0.05,15.949999999999998,0)" xlink:href="#Y"/><use transform="matrix(0.05,0,0,0.05,25.950000000000003,0)" xlink:href="#au"/><use transform="matrix(0.05,0,0,0.05,29.899999999999995,0)" xlink:href="#at"/><use transform="matrix(0.05,0,0,0.05,39.9,0)" xlink:href="#ag"/><use transform="matrix(0.05,0,0,0.05,43.85,0)" xlink:href="#V"/><use transform="matrix(0.05,0,0,0.05,53.85,0)" xlink:href="#T"/><use transform="matrix(0.05,0,0,0.05,63.85,0)" xlink:href="#as"/><use transform="matrix(0.05,0,0,0.05,72.85,0)" xlink:href="#R"/></g><g id="L"><use transform="matrix(0.05,0,0,0.05,0,0)" xlink:href="#ab"/><use transform="matrix(0.05,0,0,0.05,10,0)" xlink:href="#aa"/><use transform="matrix(0.05,0,0,0.05,20,0)" xlink:href="#ak"/><use transform="matrix(0.05,0,0,0.05,30,0)" xlink:href="#ao"/><use transform="matrix(0.05,0,0,0.05,40,0)" xlink:href="#ac"/><use transform="matrix(0.05,0,0,0.05,45,0)" xlink:href="#T"/><use transform="matrix(0.05,0,0,0.05,55,0)" xlink:href="#ai"/><use transform="matrix(0.05,0,0,0.05,60.95,0)" xlink:href="#aj"/></g><path d="M68-38c1 34 0 65-14 84H32c9-13 17-26 17-46H33v-38h35" id="aH"/><g id="M"><use transform="matrix(0.05,0,0,0.05,0,0)" xlink:href="#aw"/><use transform="matrix(0.05,0,0,0.05,9,0)" xlink:href="#T"/><use transform="matrix(0.05,0,0,0.05,19,0)" xlink:href="#W"/><use transform="matrix(0.05,0,0,0.05,22.95,0)" xlink:href="#Y"/><use transform="matrix(0.05,0,0,0.05,32.95,0)" xlink:href="#X"/><use transform="matrix(0.05,0,0,0.05,41.95,0)" xlink:href="#ag"/><use transform="matrix(0.05,0,0,0.05,45.900000000000006,0)" xlink:href="#ac"/><use transform="matrix(0.05,0,0,0.05,50.900000000000006,0)" xlink:href="#ah"/><use transform="matrix(0.05,0,0,0.05,59.900000000000006,0)" xlink:href="#R"/><use transform="matrix(0.05,0,0,0.05,69.9,0)" xlink:href="#aH"/></g><g id="N"><use transform="matrix(0.05,0,0,0.05,0,0)" xlink:href="#aa"/><use transform="matrix(0.05,0,0,0.05,10,0)" xlink:href="#Y"/><use transform="matrix(0.05,0,0,0.05,20,0)" xlink:href="#as"/><use transform="matrix(0.05,0,0,0.05,29,0)" xlink:href="#ag"/><use transform="matrix(0.05,0,0,0.05,32.95,0)" xlink:href="#ac"/><use transform="matrix(0.05,0,0,0.05,37.95,0)" xlink:href="#ag"/><use transform="matrix(0.05,0,0,0.05,41.900000000000006,0)" xlink:href="#Y"/><use transform="matrix(0.05,0,0,0.05,51.900000000000006,0)" xlink:href="#V"/><use transform="matrix(0.05,0,0,0.05,61.900000000000006,0)" xlink:href="#R"/></g><g id="O"><use transform="matrix(0.05,0,0,0.05,0,0)" xlink:href="#V"/><use transform="matrix(0.05,0,0,0.05,10,0)" xlink:href="#T"/><use transform="matrix(0.05,0,0,0.05,20,0)" xlink:href="#ae"/><use transform="matrix(0.05,0,0,0.05,32.95,0)" xlink:href="#af"/><use transform="matrix(0.05,0,0,0.05,43.95,0)" xlink:href="#T"/><use transform="matrix(0.05,0,0,0.05,53.95,0)" xlink:href="#W"/><use transform="matrix(0.05,0,0,0.05,57.900000000000006,0)" xlink:href="#Y"/><use transform="matrix(0.05,0,0,0.05,67.9,0)" xlink:href="#X"/><use transform="matrix(0.05,0,0,0.05,76.9,0)" xlink:href="#ag"/><use transform="matrix(0.05,0,0,0.05,80.85000000000001,0)" xlink:href="#ac"/><use transform="matrix(0.05,0,0,0.05,85.85000000000001,0)" xlink:href="#ah"/><use transform="matrix(0.05,0,0,0.05,94.85000000000001,0)" xlink:href="#R"/><use transform="matrix(0.05,0,0,0.05,104.85000000000001,0)" xlink:href="#aH"/></g><g id="P"><use transform="matrix(0.05,0,0,0.05,0,0)" xlink:href="#V"/><use transform="matrix(0.05,0,0,0.05,10,0)" xlink:href="#ab"/><use transform="matrix(0.05,0,0,0.05,20,0)" xlink:href="#Z"/><use transform="matrix(0.05,0,0,0.05,34.95,0)" xlink:href="#ap"/><use transform="matrix(0.05,0,0,0.05,46.95,0)" xlink:href="#am"/><use transform="matrix(0.05,0,0,0.05,56.95,0)" xlink:href="#T"/><use transform="matrix(0.05,0,0,0.05,66.95,0)" xlink:href="#V"/><use transform="matrix(0.05,0,0,0.05,76.95,0)" xlink:href="#ac"/><use transform="matrix(0.05,0,0,0.05,81.95,0)" xlink:href="#ad"/><use transform="matrix(0.05,0,0,0.05,94.9,0)" xlink:href="#T"/><use transform="matrix(0.05,0,0,0.05,104.9,0)" xlink:href="#ag"/><use transform="matrix(0.05,0,0,0.05,108.85000000000001,0)" xlink:href="#am"/><use transform="matrix(0.05,0,0,0.05,118.85000000000001,0)" xlink:href="#aq"/><use transform="matrix(0.05,0,0,0.05,128.85000000000002,0)" xlink:href="#an"/><use transform="matrix(0.05,0,0,0.05,138.85000000000002,0)" xlink:href="#Y"/><use transform="matrix(0.05,0,0,0.05,148.85000000000002,0)" xlink:href="#U"/><use transform="matrix(0.05,0,0,0.05,154.8,0)" xlink:href="#as"/><use transform="matrix(0.05,0,0,0.05,163.8,0)" xlink:href="#R"/></g><g id="Q"><use transform="matrix(0.05,0,0,0.05,0,0)" xlink:href="#V"/><use transform="matrix(0.05,0,0,0.05,10,0)" xlink:href="#T"/><use transform="matrix(0.05,0,0,0.05,20,0)" xlink:href="#ae"/><use transform="matrix(0.05,0,0,0.05,32.95,0)" xlink:href="#af"/><use transform="matrix(0.05,0,0,0.05,43.95,0)" xlink:href="#T"/><use transform="matrix(0.05,0,0,0.05,53.95,0)" xlink:href="#W"/><use transform="matrix(0.05,0,0,0.05,57.900000000000006,0)" xlink:href="#Y"/><use transform="matrix(0.05,0,0,0.05,67.9,0)" xlink:href="#X"/><use transform="matrix(0.05,0,0,0.05,76.9,0)" xlink:href="#ag"/><use transform="matrix(0.05,0,0,0.05,80.85000000000001,0)" xlink:href="#ac"/><use transform="matrix(0.05,0,0,0.05,85.85000000000001,0)" xlink:href="#ah"/><use transform="matrix(0.05,0,0,0.05,94.85000000000001,0)" xlink:href="#R"/></g></defs></g></svg>