<svg xmlns="http://www.w3.org/2000/svg" xmlns:xlink="http://www.w3.org/1999/xlink" width="1560" height="800"><g transform="translate(-60 -60)"><path d="M0 0h1760v1360H0z" fill="#fff"/><path d="M240 80h560v80H240z" stroke="#000" stroke-width="2" fill="#fff"/><use xlink:href="#a" transform="matrix(1,0,0,1,245,85) translate(186.95 38.6)"/><use xlink:href="#b" transform="matrix(1,0,0,1,245,85) translate(280.1 38.6)"/><use xlink:href="#c" transform="matrix(1,0,0,1,245,85) translate(324.05 38.6)"/><path d="M80 80h160v80H80z" fill="none"/><use xlink:href="#d" transform="matrix(1,0,0,1,85,85) translate(46.574999999999996 38.6)"/><path d="M800 200h240v80H800z" stroke="#000" stroke-width="2" fill="#fff"/><use xlink:href="#e" transform="matrix(1,0,0,1,805.0000000000001,205) translate(59.05 38.6)"/><use xlink:href="#b" transform="matrix(1,0,0,1,805.0000000000001,205) translate(84.05 38.6)"/><use xlink:href="#f" transform="matrix(1,0,0,1,805.0000000000001,205) translate(128 38.6)"/><path d="M640 200h160v80H640z" fill="none"/><use xlink:href="#g" transform="matrix(1,0,0,1,645,205) translate(15.274999999999999 38.6)"/><use xlink:href="#h" transform="matrix(1,0,0,1,645,205) translate(70.775 38.6)"/><path d="M240 360h560v80H240z" stroke="#000" stroke-width="2" fill="#fff"/><use xlink:href="#a" transform="matrix(1,0,0,1,245,365) translate(186.95 38.6)"/><use xlink:href="#b" transform="matrix(1,0,0,1,245,365) translate(280.1 38.6)"/><use xlink:href="#c" transform="matrix(1,0,0,1,245,365) translate(324.05 38.6)"/><path d="M800 80h240v80H800z" stroke="#000" stroke-width="2" fill="#fff"/><use xlink:href="#i" transform="matrix(1,0,0,1,805.0000000000001,85) translate(100.025 38.6)"/><path d="M520 160v199" stroke="#000" stroke-width="2" fill="none"/><path d="M520 359l-4.64-14.27h9.28z"/><path d="M520.73 360h-1.46L514 343.73h12zm-4-14.27l3.27 10.03 3.26-10.03z"/><path d="M1040 200h240v80h-240z" stroke="#000" stroke-width="2" fill="#fff"/><use xlink:href="#j" transform="matrix(1,0,0,1,1045,205) translate(59.05 38.6)"/><use xlink:href="#b" transform="matrix(1,0,0,1,1045,205) translate(84.05 38.6)"/><use xlink:href="#f" transform="matrix(1,0,0,1,1045,205) translate(128 38.6)"/><path d="M1280 200h320v80h-320z" stroke="#000" stroke-width="2" fill="#fff"/><use xlink:href="#k" transform="matrix(1,0,0,1,1285,205) translate(67.57499999999999 38.6)"/><use xlink:href="#l" transform="matrix(1,0,0,1,1285,205) translate(139.475 38.6)"/><use xlink:href="#m" transform="matrix(1,0,0,1,1285,205) translate(208.425 38.6)"/><path d="M800 360h240v80H800z" stroke="#000" stroke-width="2" fill="#fff"/><use xlink:href="#e" transform="matrix(1,0,0,1,805.0000000000001,365) translate(59.05 38.6)"/><use xlink:href="#b" transform="matrix(1,0,0,1,805.0000000000001,365) translate(84.05 38.6)"/><use xlink:href="#f" transform="matrix(1,0,0,1,805.0000000000001,365) translate(128 38.6)"/><path d="M920 280v79" stroke="#000" stroke-width="2" fill="none"/><path d="M920 359l-4.64-14.27h9.28z"/><path d="M920.73 360h-1.46L914 343.73h12zm-4-14.27l3.27 10.03 3.26-10.03z"/><path d="M480 560h560v80H480z" stroke="#000" stroke-width="2" fill="#fff"/><use xlink:href="#j" transform="matrix(1,0,0,1,485,565) translate(221.025 38.6)"/><use xlink:href="#b" transform="matrix(1,0,0,1,485,565) translate(246.025 38.6)"/><use xlink:href="#c" transform="matrix(1,0,0,1,485,565) translate(289.975 38.6)"/><path d="M1040 560h240v80h-240z" stroke="#000" stroke-width="2" fill="#fff"/><use xlink:href="#j" transform="matrix(1,0,0,1,1045,565) translate(59.05 38.6)"/><use xlink:href="#b" transform="matrix(1,0,0,1,1045,565) translate(84.05 38.6)"/><use xlink:href="#f" transform="matrix(1,0,0,1,1045,565) translate(128 38.6)"/><path d="M80 480h160v80H80z" stroke="#000" stroke-width="2" fill="#fff"/><use xlink:href="#n" transform="matrix(1,0,0,1,85,485) translate(16.125 27.799999999999997)"/><use xlink:href="#o" transform="matrix(1,0,0,1,85,485) translate(64.075 27.799999999999997)"/><use xlink:href="#p" transform="matrix(1,0,0,1,85,485) translate(104.975 27.799999999999997)"/><use xlink:href="#q" transform="matrix(1,0,0,1,85,485) translate(33.025 49.4)"/><use xlink:href="#r" transform="matrix(1,0,0,1,85,485) translate(78.025 49.4)"/><path d="M240 400h-80.5v79" stroke="#000" stroke-width="2" fill="none"/><path d="M159.5 479l-4.64-14.27h9.28z"/><path d="M160.23 480h-1.46l-5.28-16.27h12zm-4-14.27l3.27 10.03 3.26-10.03z"/><path d="M1160 280v279" stroke="#000" stroke-width="2" fill="none"/><path d="M1160 559l-4.64-14.27h9.28z"/><path d="M1160.73 560h-1.46l-5.28-16.27h12zm-4-14.27l3.27 10.03 3.26-10.03z"/><path d="M320 680h160v80H320z" stroke="#000" stroke-width="2" fill="#fff"/><g><use xlink:href="#n" transform="matrix(1,0,0,1,325,685) translate(1.5750000000000028 27.799999999999997)"/><use xlink:href="#o" transform="matrix(1,0,0,1,325,685) translate(49.525000000000006 27.799999999999997)"/><use xlink:href="#s" transform="matrix(1,0,0,1,325,685) translate(90.425 27.799999999999997)"/><use xlink:href="#q" transform="matrix(1,0,0,1,325,685) translate(33.025 49.4)"/><use xlink:href="#r" transform="matrix(1,0,0,1,325,685) translate(78.025 49.4)"/></g><path d="M240 520h520v40" stroke="#000" stroke-width="2" fill="none"/><path d="M760 560l-4.64-14.27h9.28z"/><path d="M761.05 560h-2.1L754 544.73h12zm-4.3-13.27l3.25 10.03 3.26-10.03z"/><path d="M480 600h-80v80" stroke="#000" stroke-width="2" fill="none"/><path d="M400 680l-4.64-14.27h9.28z"/><path d="M401.05 680h-2.1L394 664.73h12zm-4.3-13.27l3.25 10.03 3.26-10.03z"/><path d="M720 760h560v80H720z" stroke="#000" stroke-width="2" fill="#fff"/><g><use xlink:href="#k" transform="matrix(1,0,0,1,725,765) translate(185.1 38.6)"/><use xlink:href="#l" transform="matrix(1,0,0,1,725,765) translate(257 38.6)"/><use xlink:href="#t" transform="matrix(1,0,0,1,725,765) translate(325.95000000000005 38.6)"/></g><path d="M480 720h520v40" stroke="#000" stroke-width="2" fill="none"/><path d="M1000 760l-4.64-14.27h9.28z"/><path d="M1001.05 760h-2.1L994 744.73h12zm-4.3-13.27l3.25 10.03 3.26-10.03z"/><path d="M1280 760h320v80h-320z" stroke="#000" stroke-width="2" fill="#fff"/><g><use xlink:href="#k" transform="matrix(1,0,0,1,1285,765) translate(67.57499999999999 38.6)"/><use xlink:href="#l" transform="matrix(1,0,0,1,1285,765) translate(139.475 38.6)"/><use xlink:href="#m" transform="matrix(1,0,0,1,1285,765) translate(208.425 38.6)"/></g><path d="M1440 280v479" stroke="#000" stroke-width="2" fill="none"/><path d="M1440 759l-4.64-14.27h9.28z"/><path d="M1440.73 760h-1.46l-5.28-16.27h12zm-4-14.27l3.27 10.03 3.26-10.03z"/><path d="M500 760h220v80H500z" fill="none"/><g><use xlink:href="#k" transform="matrix(1,0,0,1,505,765) translate(37.07499999999999 38.6)"/><use xlink:href="#h" transform="matrix(1,0,0,1,505,765) translate(108.975 38.6)"/></g><defs><path d="M127-220V0H93v-220H8v-28h204v28h-85" id="u"/><path d="M114-163C36-179 61-72 57 0H25l-1-190h30c1 12-1 29 2 39 6-27 23-49 58-41v29" id="v"/><path d="M141-36C126-15 110 5 73 4 37 3 15-17 15-53c-1-64 63-63 125-63 3-35-9-54-41-54-24 1-41 7-42 31l-33-3c5-37 33-52 76-52 45 0 72 20 72 64v82c-1 20 7 32 28 27v20c-31 9-61-2-59-35zM48-53c0 20 12 33 32 33 41-3 63-29 60-74-43 2-92-5-92 41" id="w"/><path d="M117-194c89-4 53 116 60 194h-32v-121c0-31-8-49-39-48C34-167 62-67 57 0H25l-1-190h30c1 10-1 24 2 32 11-22 29-35 61-36" id="x"/><path d="M135-143c-3-34-86-38-87 0 15 53 115 12 119 90S17 21 10-45l28-5c4 36 97 45 98 0-10-56-113-15-118-90-4-57 82-63 122-42 12 7 21 19 24 35" id="y"/><path d="M24 0v-261h32V0H24" id="z"/><path d="M59-47c-2 24 18 29 38 22v24C64 9 27 4 27-40v-127H5v-23h24l9-43h21v43h35v23H59v120" id="A"/><path d="M24-231v-30h32v30H24zM24 0v-190h32V0H24" id="B"/><path d="M100-194c62-1 85 37 85 99 1 63-27 99-86 99S16-35 15-95c0-66 28-99 85-99zM99-20c44 1 53-31 53-75 0-43-8-75-51-75s-53 32-53 75 10 74 51 75" id="C"/><g id="a"><use transform="matrix(0.05,0,0,0.05,0,0)" xlink:href="#u"/><use transform="matrix(0.05,0,0,0.05,10.3,0)" xlink:href="#v"/><use transform="matrix(0.05,0,0,0.05,16.25,0)" xlink:href="#w"/><use transform="matrix(0.05,0,0,0.05,26.25,0)" xlink:href="#x"/><use transform="matrix(0.05,0,0,0.05,36.25,0)" xlink:href="#y"/><use transform="matrix(0.05,0,0,0.05,45.25,0)" xlink:href="#z"/><use transform="matrix(0.05,0,0,0.05,49.2,0)" xlink:href="#w"/><use transform="matrix(0.05,0,0,0.05,59.2,0)" xlink:href="#A"/><use transform="matrix(0.05,0,0,0.05,64.2,0)" xlink:href="#B"/><use transform="matrix(0.05,0,0,0.05,68.15,0)" xlink:href="#C"/><use transform="matrix(0.05,0,0,0.05,78.15,0)" xlink:href="#x"/></g><path d="M115-194c53 0 69 39 70 98 0 66-23 100-70 100C84 3 66-7 56-30L54 0H23l1-261h32v101c10-23 28-34 59-34zm-8 174c40 0 45-34 45-75 0-40-5-75-45-74-42 0-51 32-51 76 0 43 10 73 51 73" id="D"/><path d="M100-194c63 0 86 42 84 106H49c0 40 14 67 53 68 26 1 43-12 49-29l28 8c-11 28-37 45-77 45C44 4 14-33 15-96c1-61 26-98 85-98zm52 81c6-60-76-77-97-28-3 7-6 17-6 28h103" id="E"/><g id="b"><use transform="matrix(0.05,0,0,0.05,0,0)" xlink:href="#A"/><use transform="matrix(0.05,0,0,0.05,5,0)" xlink:href="#w"/><use transform="matrix(0.05,0,0,0.05,15,0)" xlink:href="#D"/><use transform="matrix(0.05,0,0,0.05,25,0)" xlink:href="#z"/><use transform="matrix(0.05,0,0,0.05,28.950000000000003,0)" xlink:href="#E"/></g><g id="c"><use transform="matrix(0.05,0,0,0.05,0,0)" xlink:href="#D"/><use transform="matrix(0.05,0,0,0.05,10,0)" xlink:href="#w"/><use transform="matrix(0.05,0,0,0.05,20,0)" xlink:href="#y"/><use transform="matrix(0.05,0,0,0.05,29,0)" xlink:href="#E"/></g><path d="M160-131c35 5 61 23 61 61C221 17 115-2 30 0v-248c76 3 177-17 177 60 0 33-19 50-47 57zm-97-11c50-1 110 9 110-42 0-47-63-36-110-37v79zm0 115c55-2 124 14 124-45 0-56-70-42-124-44v89" id="F"/><path d="M233-177c-1 41-23 64-60 70L243 0h-38l-65-103H63V0H30v-248c88 3 205-21 203 71zM63-129c60-2 137 13 137-47 0-61-80-42-137-45v92" id="G"/><path d="M101-251c68 0 85 55 85 127S166 4 100 4C33 4 14-52 14-124c0-73 17-127 87-127zm-1 229c47 0 54-49 54-102s-4-102-53-102c-51 0-55 48-55 102 0 53 5 102 54 102" id="H"/><g id="d"><use transform="matrix(0.05,0,0,0.05,0,0)" xlink:href="#u"/><use transform="matrix(0.05,0,0,0.05,10.950000000000001,0)" xlink:href="#u"/><use transform="matrix(0.05,0,0,0.05,21.900000000000002,0)" xlink:href="#F"/><use transform="matrix(0.05,0,0,0.05,33.900000000000006,0)" xlink:href="#G"/><use transform="matrix(0.05,0,0,0.05,46.85000000000001,0)" xlink:href="#H"/></g><path d="M30 0v-248h33v221h125V0H30" id="I"/><path d="M27 0v-27h64v-190l-56 39v-29l58-41h29v221h61V0H27" id="J"/><g id="e"><use transform="matrix(0.05,0,0,0.05,0,0)" xlink:href="#I"/><use transform="matrix(0.05,0,0,0.05,10,0)" xlink:href="#J"/></g><path d="M85-194c31 0 48 13 60 33l-1-100h32l1 261h-30c-2-10 0-23-3-31C134-8 116 4 85 4 32 4 16-35 15-94c0-66 23-100 70-100zm9 24c-40 0-46 34-46 75 0 40 6 74 45 74 42 0 51-32 51-76 0-42-9-74-50-73" id="K"/><path d="M141 0L90-78 38 0H4l68-98-65-92h35l48 74 47-74h35l-64 92 68 98h-35" id="L"/><g id="f"><use transform="matrix(0.05,0,0,0.05,0,0)" xlink:href="#B"/><use transform="matrix(0.05,0,0,0.05,3.95,0)" xlink:href="#x"/><use transform="matrix(0.05,0,0,0.05,13.949999999999998,0)" xlink:href="#K"/><use transform="matrix(0.05,0,0,0.05,23.95,0)" xlink:href="#E"/><use transform="matrix(0.05,0,0,0.05,33.95,0)" xlink:href="#L"/></g><path d="M137 0h-34L2-248h35l83 218 83-218h36" id="M"/><path d="M84 4C-5 8 30-112 23-190h32v120c0 31 7 50 39 49 72-2 45-101 50-169h31l1 190h-30c-1-10 1-25-2-33-11 22-28 36-60 37" id="N"/><g id="g"><use transform="matrix(0.05,0,0,0.05,0,0)" xlink:href="#M"/><use transform="matrix(0.05,0,0,0.05,11.65,0)" xlink:href="#B"/><use transform="matrix(0.05,0,0,0.05,15.600000000000001,0)" xlink:href="#v"/><use transform="matrix(0.05,0,0,0.05,21.55,0)" xlink:href="#A"/><use transform="matrix(0.05,0,0,0.05,26.55,0)" xlink:href="#N"/><use transform="matrix(0.05,0,0,0.05,36.55,0)" xlink:href="#w"/><use transform="matrix(0.05,0,0,0.05,46.55,0)" xlink:href="#z"/></g><g id="h"><use transform="matrix(0.05,0,0,0.05,0,0)" xlink:href="#w"/><use transform="matrix(0.05,0,0,0.05,10,0)" xlink:href="#K"/><use transform="matrix(0.05,0,0,0.05,20,0)" xlink:href="#K"/><use transform="matrix(0.05,0,0,0.05,30,0)" xlink:href="#v"/><use transform="matrix(0.05,0,0,0.05,35.95,0)" xlink:href="#E"/><use transform="matrix(0.05,0,0,0.05,45.95,0)" xlink:href="#y"/><use transform="matrix(0.05,0,0,0.05,54.95,0)" xlink:href="#y"/></g><path d="M190 0L58-211 59 0H30v-248h39L202-35l-2-213h31V0h-41" id="O"/><path d="M0 4l72-265h28L28 4H0" id="P"/><path d="M205 0l-28-72H64L36 0H1l101-248h38L239 0h-34zm-38-99l-47-123c-12 45-31 82-46 123h93" id="Q"/><g id="i"><use transform="matrix(0.05,0,0,0.05,0,0)" xlink:href="#O"/><use transform="matrix(0.05,0,0,0.05,12.950000000000001,0)" xlink:href="#P"/><use transform="matrix(0.05,0,0,0.05,17.950000000000003,0)" xlink:href="#Q"/></g><path d="M101-251c82-7 93 87 43 132L82-64C71-53 59-42 53-27h129V0H18c2-99 128-94 128-182 0-28-16-43-45-43s-46 15-49 41l-32-3c6-41 34-60 81-64" id="R"/><g id="j"><use transform="matrix(0.05,0,0,0.05,0,0)" xlink:href="#I"/><use transform="matrix(0.05,0,0,0.05,10,0)" xlink:href="#R"/></g><path d="M30-248c87 1 191-15 191 75 0 78-77 80-158 76V0H30v-248zm33 125c57 0 124 11 124-50 0-59-68-47-124-48v98" id="S"/><path d="M106-169C34-169 62-67 57 0H25v-261h32l-1 103c12-21 28-36 61-36 89 0 53 116 60 194h-32v-121c2-32-8-49-39-48" id="T"/><path d="M179-190L93 31C79 59 56 82 12 73V49c39 6 53-20 64-50L1-190h34L92-34l54-156h33" id="U"/><path d="M96-169c-40 0-48 33-48 73s9 75 48 75c24 0 41-14 43-38l32 2c-6 37-31 61-74 61-59 0-76-41-82-99-10-93 101-131 147-64 4 7 5 14 7 22l-32 3c-4-21-16-35-41-35" id="V"/><g id="k"><use transform="matrix(0.05,0,0,0.05,0,0)" xlink:href="#S"/><use transform="matrix(0.05,0,0,0.05,12,0)" xlink:href="#T"/><use transform="matrix(0.05,0,0,0.05,22,0)" xlink:href="#U"/><use transform="matrix(0.05,0,0,0.05,31,0)" xlink:href="#y"/><use transform="matrix(0.05,0,0,0.05,40,0)" xlink:href="#B"/><use transform="matrix(0.05,0,0,0.05,43.95,0)" xlink:href="#V"/><use transform="matrix(0.05,0,0,0.05,52.95,0)" xlink:href="#w"/><use transform="matrix(0.05,0,0,0.05,62.95,0)" xlink:href="#z"/></g><g id="l"><use transform="matrix(0.05,0,0,0.05,0,0)" xlink:href="#w"/><use transform="matrix(0.05,0,0,0.05,10,0)" xlink:href="#K"/><use transform="matrix(0.05,0,0,0.05,20,0)" xlink:href="#K"/><use transform="matrix(0.05,0,0,0.05,30,0)" xlink:href="#v"/><use transform="matrix(0.05,0,0,0.05,35.95,0)" xlink:href="#E"/><use transform="matrix(0.05,0,0,0.05,45.95,0)" xlink:href="#y"/><use transform="matrix(0.05,0,0,0.05,54.95,0)" xlink:href="#y"/></g><path d="M185-189c-5-48-123-54-124 2 14 75 158 14 163 119 3 78-121 87-175 55-17-10-28-26-33-46l33-7c5 56 141 63 141-1 0-78-155-14-162-118-5-82 145-84 179-34 5 7 8 16 11 25" id="W"/><g id="m"><use transform="matrix(0.05,0,0,0.05,0,0)" xlink:href="#I"/><use transform="matrix(0.05,0,0,0.05,10,0)" xlink:href="#W"/><use transform="matrix(0.05,0,0,0.05,22,0)" xlink:href="#F"/></g><g id="n"><use transform="matrix(0.05,0,0,0.05,0,0)" xlink:href="#G"/><use transform="matrix(0.05,0,0,0.05,12.950000000000001,0)" xlink:href="#E"/><use transform="matrix(0.05,0,0,0.05,22.950000000000003,0)" xlink:href="#w"/><use transform="matrix(0.05,0,0,0.05,32.95,0)" xlink:href="#K"/></g><path d="M101-234c-31-9-42 10-38 44h38v23H63V0H32v-167H5v-23h27c-7-52 17-82 69-68v24" id="X"/><path d="M210-169c-67 3-38 105-44 169h-31v-121c0-29-5-50-35-48C34-165 62-65 56 0H25l-1-190h30c1 10-1 24 2 32 10-44 99-50 107 0 11-21 27-35 58-36 85-2 47 119 55 194h-31v-121c0-29-5-49-35-48" id="Y"/><g id="o"><use transform="matrix(0.05,0,0,0.05,0,0)" xlink:href="#X"/><use transform="matrix(0.05,0,0,0.05,5,0)" xlink:href="#v"/><use transform="matrix(0.05,0,0,0.05,10.95,0)" xlink:href="#C"/><use transform="matrix(0.05,0,0,0.05,20.95,0)" xlink:href="#Y"/></g><g id="p"><use transform="matrix(0.05,0,0,0.05,0,0)" xlink:href="#X"/><use transform="matrix(0.05,0,0,0.05,5,0)" xlink:href="#B"/><use transform="matrix(0.05,0,0,0.05,8.95,0)" xlink:href="#v"/><use transform="matrix(0.05,0,0,0.05,14.899999999999999,0)" xlink:href="#y"/><use transform="matrix(0.05,0,0,0.05,23.9,0)" xlink:href="#A"/></g><path d="M115-194c55 1 70 41 70 98S169 2 115 4C84 4 66-9 55-30l1 105H24l-1-265h31l2 30c10-21 28-34 59-34zm-8 174c40 0 45-34 45-75s-6-73-45-74c-42 0-51 32-51 76 0 43 10 73 51 73" id="Z"/><path d="M177-190C167-65 218 103 67 71c-23-6-38-20-44-43l32-5c15 47 100 32 89-28v-30C133-14 115 1 83 1 29 1 15-40 15-95c0-56 16-97 71-98 29-1 48 16 59 35 1-10 0-23 2-32h30zM94-22c36 0 50-32 50-73 0-42-14-75-50-75-39 0-46 34-46 75s6 73 46 73" id="aa"/><g id="q"><use transform="matrix(0.05,0,0,0.05,0,0)" xlink:href="#Z"/><use transform="matrix(0.05,0,0,0.05,10,0)" xlink:href="#w"/><use transform="matrix(0.05,0,0,0.05,20,0)" xlink:href="#aa"/><use transform="matrix(0.05,0,0,0.05,30,0)" xlink:href="#E"/></g><g id="r"><use transform="matrix(0.05,0,0,0.05,0,0)" xlink:href="#A"/><use transform="matrix(0.05,0,0,0.05,5,0)" xlink:href="#w"/><use transform="matrix(0.05,0,0,0.05,15,0)" xlink:href="#D"/><use transform="matrix(0.05,0,0,0.05,25,0)" xlink:href="#z"/><use transform="matrix(0.05,0,0,0.05,28.950000000000003,0)" xlink:href="#E"/></g><g id="s"><use transform="matrix(0.05,0,0,0.05,0,0)" xlink:href="#y"/><use transform="matrix(0.05,0,0,0.05,9,0)" xlink:href="#E"/><use transform="matrix(0.05,0,0,0.05,19,0)" xlink:href="#V"/><use transform="matrix(0.05,0,0,0.05,28,0)" xlink:href="#C"/><use transform="matrix(0.05,0,0,0.05,38,0)" xlink:href="#x"/><use transform="matrix(0.05,0,0,0.05,48,0)" xlink:href="#K"/></g><path d="M240 0l2-218c-23 76-54 145-80 218h-23L58-218 59 0H30v-248h44l77 211c21-75 51-140 76-211h43V0h-30" id="ab"/><g id="t"><use transform="matrix(0.05,0,0,0.05,0,0)" xlink:href="#ab"/><use transform="matrix(0.05,0,0,0.05,14.950000000000001,0)" xlink:href="#W"/><use transform="matrix(0.05,0,0,0.05,26.950000000000003,0)" xlink:href="#F"/></g></defs></g></svg>