<?xml version="1.0" encoding="UTF-8" standalone="no"?>
<!DOCTYPE svg PUBLIC "-//W3C//DTD SVG 1.0//EN" "http://www.w3.org/TR/2001/REC-SVG-20010904/DTD/svg10.dtd">
<!-- Generated by Microsoft Visio 11.0, SVG Export, v1.0 generating_address_of_level2_page_table_entry.svg Page-1 -->
<svg xmlns:ev="http://www.w3.org/2001/xml-events" xmlns:xlink="http://www.w3.org/1999/xlink" xmlns="http://www.w3.org/2000/svg" xmlns:v="http://schemas.microsoft.com/visio/2003/SVGExtensions/" width="541.4592" height="375.16032" viewBox="0 0 406.094 281.37" xml:space="preserve" color-interpolation-filters="sRGB" class="st23">
	<v:documentProperties v:langID="1033" v:metric="true" v:viewMarkup="false"/>

	<style type="text/css">
	<![CDATA[
		.st1 {fill:#d9d9d9;stroke:#000000;stroke-dasharray:0.48,0.24;stroke-linecap:butt;stroke-opacity:0.74;stroke-width:0.24}
		.st2 {fill:#ebf1de;stroke:#000000;stroke-dasharray:0.48,0.24;stroke-linecap:butt;stroke-opacity:0.74;stroke-width:0.24}
		.st3 {fill:#ffffff;stroke:#000000;stroke-dasharray:0.48,0.24;stroke-linecap:butt;stroke-opacity:0.74;stroke-width:0.24}
		.st4 {fill:#000000;font-family:Arial,Helvetica,sans-serif;font-size:0.75em}
		.st5 {fill:none;stroke:none;stroke-linecap:butt;stroke-width:0.75}
		.st6 {fill:#000000;font-family:'Lucida Sans Typewriter','Lucida Console','Courier New',Courier,monospace;font-size:0.75em}
		.st7 {fill:#fdefe3;stroke:#000000;stroke-dasharray:0.48,0.24;stroke-linecap:butt;stroke-opacity:0.74;stroke-width:0.24}
		.st8 {fill:#d1ebf1;stroke:#000000;stroke-dasharray:0.48,0.24;stroke-linecap:butt;stroke-opacity:0.74;stroke-width:0.24}
		.st9 {fill:none;stroke:none;stroke-linecap:butt;stroke-width:0.5}
		.st10 {fill:#000000;font-family:Arial,Helvetica,sans-serif;font-size:0.666664em}
		.st11 {marker-start:url(#mrkr4-37);stroke:#000000;stroke-linecap:butt;stroke-width:1}
		.st12 {fill:#000000;fill-opacity:1;stroke:#000000;stroke-opacity:1;stroke-width:0.35714285714286}
		.st13 {font-size:1em}
		.st14 {marker-end:url(#mrkr4-73);stroke:#000000;stroke-linecap:butt;stroke-width:0.5}
		.st15 {fill:#000000;fill-opacity:1;stroke:#000000;stroke-opacity:1;stroke-width:0.21739130434783}
		.st16 {fill:#edcdcb;stroke:#000000;stroke-dasharray:0.48,0.24;stroke-linecap:butt;stroke-opacity:0.74;stroke-width:0.24}
		.st17 {fill:#f1eef4;stroke:#000000;stroke-dasharray:0.48,0.24;stroke-linecap:butt;stroke-opacity:0.74;stroke-width:0.24}
		.st18 {marker-end:url(#mrkr4-96);stroke:#000000;stroke-linecap:butt;stroke-width:0.72}
		.st19 {fill:#000000;fill-opacity:1;stroke:#000000;stroke-opacity:1;stroke-width:0.28571428571429}
		.st20 {marker-end:url(#mrkr4-105);marker-start:url(#mrkr4-103);stroke:#000000;stroke-linecap:butt;stroke-width:0.24}
		.st21 {fill:#000000;fill-opacity:1;stroke:#000000;stroke-opacity:1;stroke-width:0.11764705882353}
		.st22 {marker-end:url(#mrkr4-105);stroke:#000000;stroke-linecap:butt;stroke-width:0.24}
		.st23 {fill:none;fill-rule:evenodd;font-size:12px;overflow:visible;stroke-linecap:square;stroke-miterlimit:3}
	]]>
	</style>

	<defs id="Markers">
		<g id="lend4">
			<path d="M 2 1 L -0 0 L 2 -1 L 2 1 " style="stroke:none"/>
		</g>
		<marker overflow="visible" id="mrkr4-37" class="st12" v:arrowType="4" v:arrowSize="1" v:setback="5.24" refX="5.24" orient="auto" markerUnits="strokeWidth">
			<use xlink:href="#lend4" transform="scale(2.8) "/>
		</marker>
		<marker overflow="visible" id="mrkr4-73" class="st15" v:arrowType="4" v:arrowSize="1" v:setback="8.48" refX="-8.48" orient="auto" markerUnits="strokeWidth">
			<use xlink:href="#lend4" transform="scale(-4.6,-4.6) "/>
		</marker>
		<marker overflow="visible" id="mrkr4-96" class="st19" v:arrowType="4" v:arrowSize="1" v:setback="7" refX="-7" orient="auto" markerUnits="strokeWidth">
			<use xlink:href="#lend4" transform="scale(-3.5,-3.5) "/>
		</marker>
		<marker overflow="visible" id="mrkr4-103" class="st21" v:arrowType="4" v:arrowSize="1" v:setback="15.5" refX="15.5" orient="auto" markerUnits="strokeWidth">
			<use xlink:href="#lend4" transform="scale(8.5) "/>
		</marker>
		<marker overflow="visible" id="mrkr4-105" class="st21" v:arrowType="4" v:arrowSize="1" v:setback="17" refX="-17" orient="auto" markerUnits="strokeWidth">
			<use xlink:href="#lend4" transform="scale(-8.5,-8.5) "/>
		</marker>
	</defs>
	<g v:mID="0" v:index="1" v:groupContext="foregroundPage">
		<title>Page-1</title>
		<v:pageProperties v:drawingScale="0.0393701" v:pageScale="0.0393701" v:drawingUnits="24" v:shadowOffsetX="9" v:shadowOffsetY="-9"/>
		<g id="shape1-1" v:mID="1" v:groupContext="shape" transform="translate(226.754,-122.13)">
			<title>Sheet.1</title>
			<path d="M0 281.37 L56.69 281.37 L56.69 270.03 L0 270.03 L0 281.37 Z" class="st1"/>
		</g>
		<g id="shape2-3" v:mID="2" v:groupContext="shape" transform="translate(252.266,-122.13)">
			<title>Sheet.2</title>
			<path d="M0 281.37 L15.14 281.37 L15.14 270.03 L0 270.03 L0 281.37 Z" class="st2"/>
		</g>
		<g id="shape3-5" v:mID="3" v:groupContext="shape" transform="translate(226.754,-88.114)">
			<title>Sheet.3</title>
			<desc>...</desc>
			<v:textBlock v:margins="rect(0,0,0,0)" v:tabSpace="42.5197"/>
			<v:textRect cx="28.3465" cy="264.362" width="56.7" height="34.0157"/>
			<path d="M0 281.37 L56.69 281.37 L56.69 247.35 L0 247.35 L0 281.37 Z" class="st3"/>
			<text x="24.6" y="267.06" class="st4" v:langID="2057"><v:paragraph v:horizAlign="1"/><v:tabList/>...</text>		</g>
		<g id="shape4-8" v:mID="4" v:groupContext="shape" transform="translate(118.823,-184.492)">
			<title>text3132.8</title>
			<desc>63</desc>
			<v:textBlock v:margins="rect(0,0,0,0)" v:tabSpace="42.5197"/>
			<v:textRect cx="7.32275" cy="275.701" width="14.65" height="11.3386"/>
			<rect x="0" y="270.031" width="14.6455" height="11.3386" class="st5"/>
			<text x="0" y="278.4" class="st6" v:langID="2057"><v:paragraph/><v:tabList/>63</text>		</g>
		<g id="shape5-11" v:mID="5" v:groupContext="shape" transform="translate(173.153,-184.492)">
			<title>text3132.32</title>
			<desc>0</desc>
			<v:textBlock v:margins="rect(0,0,0,0)" v:tabSpace="42.5197"/>
			<v:textRect cx="4.25197" cy="275.701" width="8.51" height="11.3386"/>
			<rect x="0" y="270.031" width="8.50394" height="11.3386" class="st5"/>
			<text x="3.08" y="278.4" class="st6" v:langID="2057"><v:paragraph v:horizAlign="2"/><v:tabList/>0</text>		</g>
		<g id="shape6-14" v:mID="6" v:groupContext="shape" transform="translate(119.295,-207.169)">
			<title>Sheet.6</title>
			<desc>Level 2 index</desc>
			<v:textBlock v:margins="rect(0,0,0,0)" v:tabSpace="42.5197"/>
			<v:textRect cx="41.1024" cy="274.283" width="82.21" height="14.1732"/>
			<path d="M0 281.37 L82.2 281.37 L82.2 267.2 L0 267.2 L0 281.37 Z" class="st7"/>
			<text x="14.58" y="276.98" class="st4" v:langID="2057"><v:paragraph v:horizAlign="1"/><v:tabList/>Level 2 index</text>		</g>
		<g id="shape7-17" v:mID="7" v:groupContext="shape" transform="translate(269.531,-207.169)">
			<title>Sheet.7</title>
			<desc>PA [15:0]</desc>
			<v:textBlock v:margins="rect(0,0,0,0)" v:tabSpace="42.5197"/>
			<v:textRect cx="24.0945" cy="274.283" width="48.19" height="14.1732"/>
			<path d="M0 281.37 L48.19 281.37 L48.19 267.2 L0 267.2 L0 281.37 Z" class="st8"/>
			<text x="5.58" y="276.98" class="st4" v:langID="2057"><v:paragraph v:horizAlign="1"/><v:tabList/>PA [15:0]</text>		</g>
		<g id="shape8-20" v:mID="8" v:groupContext="shape" transform="translate(30.9488,-221.342)">
			<title>text3132.34</title>
			<desc>63</desc>
			<v:textBlock v:margins="rect(0,0,0,0)" v:tabSpace="42.5197"/>
			<v:textRect cx="7.32275" cy="275.701" width="14.65" height="11.3386"/>
			<rect x="0" y="270.031" width="14.6455" height="11.3386" class="st5"/>
			<text x="0" y="278.4" class="st6" v:langID="2057"><v:paragraph/><v:tabList/>63</text>		</g>
		<g id="shape9-23" v:mID="9" v:groupContext="shape" transform="translate(304.964,-221.342)">
			<title>text3132.35</title>
			<desc>0</desc>
			<v:textBlock v:margins="rect(0,0,0,0)" v:tabSpace="42.5197"/>
			<v:textRect cx="6.37795" cy="275.701" width="12.76" height="11.3386"/>
			<rect x="0" y="270.031" width="12.7559" height="11.3386" class="st5"/>
			<text x="7.33" y="278.4" class="st6" v:langID="2057"><v:paragraph v:horizAlign="2"/><v:tabList/>0</text>		</g>
		<g id="shape10-26" v:mID="10" v:groupContext="shape" transform="translate(62.6022,-110.791)">
			<title>Sheet.10</title>
			<desc>Index in table</desc>
			<v:textBlock v:margins="rect(1,1,1,1)" v:tabSpace="42.5197"/>
			<v:textRect cx="25.5118" cy="275.701" width="51.03" height="11.3386"/>
			<rect x="0" y="270.031" width="51.0236" height="11.3386" class="st9"/>
			<text x="1" y="278.1" class="st10" v:langID="2057"><v:paragraph/><v:tabList/>Index in table    </text>		</g>
		<g id="shape11-29" v:mID="11" v:groupContext="shape" transform="translate(113.626,-266.697)">
			<title>Sheet.11</title>
			<desc>Virtual address from core</desc>
			<v:textBlock v:margins="rect(1,1,1,1)" v:tabSpace="42.5197"/>
			<v:textRect cx="62.3622" cy="274.283" width="124.73" height="14.1732"/>
			<rect x="0" y="267.197" width="124.724" height="14.1732" class="st9"/>
			<text x="12.09" y="276.98" class="st4" v:langID="2057"><v:paragraph v:horizAlign="1"/><v:tabList/>Virtual address from core</text>		</g>
		<g id="shape12-32" v:mID="12" v:groupContext="shape" transform="translate(-105.382,37.3504) rotate(-90)">
			<title>Bus 1.49</title>
			<v:custProps>
				<v:cp v:nameU="color1" v:lbl="Color" v:prompt="Set the color of the Bus" v:type="1" v:format="Black;Red;Green;Blue;Yellow;LightBlue;Gray" v:sortKey="" v:invis="false" v:ask="false" v:langID="1033" v:cal="0" v:val="VT4(Black)"/>
			</v:custProps>
			<v:userDefs>
				<v:ud v:nameU="colorNames" v:prompt="" v:val="VT4(Black;Red;Green;Blue;Yellow;LightBlue;Gray)"/>
				<v:ud v:nameU="colorValues" v:prompt="" v:val="VT4(RGB(0,0,0);RGB(255,102,102);RGB(153,255,153);RGB(153,204,255);RGB(255,204,51);RGB(204,255,255);RGB(192,192,192))"/>
				<v:ud v:nameU="color1" v:prompt="" v:val="VT4(RGB(0,0,0))"/>
			</v:userDefs>
			<path d="M5.24 281.37 L5.6 281.37 L22.68 281.37" class="st11"/>
		</g>
		<g id="shape13-38" v:mID="13" v:groupContext="shape" transform="translate(119.295,-91.618)">
			<title>Sheet.13</title>
			<desc>L2 page table</desc>
			<v:textBlock v:margins="rect(1,1,1,1)" v:tabSpace="42.5197"/>
			<v:textRect cx="28.3465" cy="276.37" width="56.7" height="10"/>
			<rect x="0" y="271.37" width="56.6929" height="10" class="st9"/>
			<text x="4.1" y="278.77" class="st10" v:langID="2057"><v:paragraph v:horizAlign="1"/><v:tabList/>L2 page table</text>		</g>
		<g id="shape14-41" v:mID="14" v:groupContext="shape" transform="translate(0.24,-129.216)">
			<title>rect5245-4.6</title>
			<desc>TTBRx</desc>
			<v:textBlock v:margins="rect(0,0,0,0)" v:tabSpace="42.5197"/>
			<v:textRect cx="34.0157" cy="274.283" width="68.04" height="14.1732"/>
			<path d="M0 281.37 L68.03 281.37 L68.03 267.2 L0 267.2 L0 281.37 Z" class="st3"/>
			<text x="20.02" y="276.98" class="st4" v:langID="2057"><v:paragraph v:horizAlign="1"/><v:tabList/>TTBRx</text>		</g>
		<g id="shape15-44" v:mID="15" v:groupContext="shape" transform="translate(314.709,-123.547)">
			<title>Sheet.15</title>
			<desc>Low bits of virtual address form low bits of physical address</desc>
			<v:textBlock v:margins="rect(1,1,1,1)" v:tabSpace="42.5197"/>
			<v:textRect cx="45.4429" cy="265.779" width="90.89" height="31.1811"/>
			<rect x="0" y="250.189" width="90.8858" height="31.1811" class="st9"/>
			<text x="1" y="258.58" class="st10" v:langID="2057"><v:paragraph/><v:tabList/>Low bits of virtual <tspan x="1" dy="9.5999616" class="st13">address form low bits of </tspan><tspan x="1" dy="9.5999616" class="st13">physical address</tspan></text>		</g>
		<g id="shape16-49" v:mID="16" v:groupContext="shape" transform="translate(93.7833,-207.169)">
			<title>rect5245-4.33</title>
			<path d="M0 281.37 L25.51 281.37 L25.51 267.2 L0 267.2 L0 281.37 Z" class="st3"/>
		</g>
		<g id="shape17-51" v:mID="17" v:groupContext="shape" transform="translate(199.374,-221.342)">
			<title>text3132.36</title>
			<desc>28</desc>
			<v:textBlock v:margins="rect(0,0,0,0)" v:tabSpace="42.5197"/>
			<v:textRect cx="6.73228" cy="275.701" width="13.47" height="11.3386"/>
			<rect x="0" y="270.031" width="13.4646" height="11.3386" class="st5"/>
			<text x="2.62" y="278.4" class="st6" v:langID="2057"><v:paragraph v:horizAlign="2"/><v:tabList/>28</text>		</g>
		<g id="shape18-54" v:mID="18" v:groupContext="shape" transform="translate(184.492,-221.342)">
			<title>text3132.37</title>
			<desc>29</desc>
			<v:textBlock v:margins="rect(0,0,0,0)" v:tabSpace="42.5197"/>
			<v:textRect cx="6.73228" cy="275.701" width="13.47" height="11.3386"/>
			<rect x="0" y="270.031" width="13.4646" height="11.3386" class="st5"/>
			<text x="2.62" y="278.4" class="st6" v:langID="2057"><v:paragraph v:horizAlign="2"/><v:tabList/>29</text>		</g>
		<g id="shape19-57" v:mID="19" v:groupContext="shape" transform="translate(114.334,-221.342)">
			<title>text3132.40</title>
			<desc>41</desc>
			<v:textBlock v:margins="rect(0,0,0,0)" v:tabSpace="42.5197"/>
			<v:textRect cx="6.73228" cy="275.701" width="13.47" height="11.3386"/>
			<rect x="0" y="270.031" width="13.4646" height="11.3386" class="st5"/>
			<text x="2.62" y="278.4" class="st6" v:langID="2057"><v:paragraph v:horizAlign="2"/><v:tabList/>41</text>		</g>
		<g id="shape20-60" v:mID="20" v:groupContext="shape" transform="translate(122.13,-127.799)">
			<title>Sheet.20</title>
			<path d="M0 281.37 L56.69 281.37 L56.69 270.03 L0 270.03 L0 281.37 Z" class="st1"/>
		</g>
		<g id="shape21-62" v:mID="21" v:groupContext="shape" transform="translate(122.13,-105.122)">
			<title>Sheet.21</title>
			<desc>...</desc>
			<v:textBlock v:margins="rect(0,0,0,0)" v:tabSpace="42.5197"/>
			<v:textRect cx="28.3465" cy="270.031" width="56.7" height="22.6772"/>
			<path d="M0 281.37 L56.69 281.37 L56.69 258.69 L0 258.69 L0 281.37 Z" class="st3"/>
			<text x="24.6" y="272.73" class="st4" v:langID="2057"><v:paragraph v:horizAlign="1"/><v:tabList/>...</text>		</g>
		<g id="shape22-65" v:mID="22" v:groupContext="shape" transform="translate(269.531,-0.24)">
			<title>Sheet.22</title>
			<desc>PA [15:0]</desc>
			<v:textBlock v:margins="rect(0,0,0,0)" v:tabSpace="42.5197"/>
			<v:textRect cx="24.0945" cy="274.283" width="48.19" height="14.1732"/>
			<path d="M0 281.37 L48.19 281.37 L48.19 267.2 L0 267.2 L0 281.37 Z" class="st8"/>
			<text x="5.58" y="276.98" class="st4" v:langID="2057"><v:paragraph v:horizAlign="1"/><v:tabList/>PA [15:0]</text>		</g>
		<g id="shape23-68" v:mID="23" v:groupContext="shape" transform="translate(-145.832,21.8965) rotate(-79.2869) scale(-1,1)">
			<title>Bezier line.38</title>
			<path d="M0 281.37 L0.64 280.67 L1.31 279.98 L2 279.31 L2.72 278.64 L3.47 277.99 L4.24 277.35 L5.03 276.73 L5.86 276.11        L6.7 275.51 L7.58 274.91 L8.48 274.33 L9.41 273.77 L10.36 273.21 L11.34 272.67 L12.34 272.14 L13.38 271.62        L14.43 271.11 L15.52 270.61 L16.62 270.13 L17.76 269.66 L18.92 269.2 L20.11 268.75 L21.32 268.31 L22.56        267.89 L23.82 267.48 L25.11 267.08 L26.43 266.69 L27.77 266.31 L29.14 265.95 L30.54 265.6 L31.96 265.26        L33.41 264.93 L34.88 264.61 L36.38 264.31 L39.28 263.78 L40.65 263.58 L42.02 263.41 L43.38 263.28 L44.73        263.18 L46.07 263.13 L47.41 263.1 L48.74 263.12 L50.07 263.17 L51.39 263.25 L52.7 263.37 L54 263.53 L55.3        263.73 L56.59 263.96 L57.87 264.22 L59.15 264.53 L60.42 264.87 L61.68 265.24 L62.94 265.65 L64.19 266.1        L65.43 266.58 L66.67 267.1 L67.9 267.66 L69.12 268.25 L70.33 268.87 L71.54 269.54 L72.74 270.24 L73.94 270.97        L75.13 271.75 L76.31 272.55 L77.48 273.4 L78.65 274.28 L79.81 275.2 L80.96 276.15 L82.11 277.14 L83.25 278.16        L83.51 278.41" class="st14"/>
		</g>
		<g id="shape24-74" v:mID="24" v:groupContext="shape" transform="translate(3.07465,-86.6967)">
			<title>Sheet.24</title>
			<desc>Page table base address</desc>
			<v:textBlock v:margins="rect(1,1,1,1)" v:tabSpace="42.5197"/>
			<v:textRect cx="28.3465" cy="268.614" width="56.7" height="25.5118"/>
			<rect x="0" y="255.858" width="56.6929" height="25.5118" class="st9"/>
			<text x="1" y="266.21" class="st10" v:langID="2057"><v:paragraph/><v:tabList/>Page table <tspan x="1" dy="9.5999616" class="st13">base address</tspan></text>		</g>
		<g id="shape25-78" v:mID="25" v:groupContext="shape" transform="translate(34.2557,-207.169)">
			<title>rect5245-4.51</title>
			<desc>TTBR select</desc>
			<v:textBlock v:margins="rect(0,0,0,0)" v:tabSpace="42.5197"/>
			<v:textRect cx="29.7638" cy="274.283" width="59.53" height="14.1732"/>
			<path d="M0 281.37 L59.53 281.37 L59.53 267.2 L0 267.2 L0 281.37 Z" class="st16"/>
			<text x="5.01" y="276.98" class="st4" v:langID="2057"><v:paragraph v:horizAlign="1"/><v:tabList/>TTBR select</text>		</g>
		<g id="shape26-81" v:mID="26" v:groupContext="shape" transform="translate(148.209,-0.24)">
			<title>rect5245-4.44</title>
			<desc>PA[47:16]</desc>
			<v:textBlock v:margins="rect(0,0,0,0)" v:tabSpace="42.5197"/>
			<v:textRect cx="60.6614" cy="274.283" width="121.33" height="14.1732"/>
			<path d="M0 281.37 L121.32 281.37 L121.32 267.2 L0 267.2 L0 281.37 Z" class="st2"/>
			<text x="40.9" y="276.98" class="st4" v:langID="2057"><v:paragraph v:horizAlign="1"/><v:tabList/>PA[47:16]</text>		</g>
		<g id="shape27-84" v:mID="27" v:groupContext="shape" transform="translate(34.2557,-0.24)">
			<title>rect5245-4.52</title>
			<path d="M0 281.37 L113.95 281.37 L113.95 267.2 L0 267.2 L0 281.37 Z" class="st3"/>
		</g>
		<g id="shape28-86" v:mID="28" v:groupContext="shape" transform="translate(122.13,-139.138)">
			<title>Sheet.28</title>
			<desc>...</desc>
			<v:textBlock v:margins="rect(0,0,0,0)" v:tabSpace="42.5197"/>
			<v:textRect cx="28.3465" cy="258.693" width="56.7" height="45.3543"/>
			<path d="M0 281.37 L56.69 281.37 L56.69 236.02 L0 236.02 L0 281.37 Z" class="st3"/>
			<text x="24.6" y="261.39" class="st4" v:langID="2057"><v:paragraph v:horizAlign="1"/><v:tabList/>...</text>		</g>
		<g id="shape29-89" v:mID="29" v:groupContext="shape" transform="translate(147.642,-127.799)">
			<title>Sheet.29</title>
			<path d="M0 281.37 L15.14 281.37 L15.14 270.03 L0 270.03 L0 281.37 Z" class="st17"/>
		</g>
		<g id="shape30-91" v:mID="30" v:groupContext="shape" transform="translate(329.799,74.2008) rotate(90)">
			<title>Sheet.30</title>
			<path d="M0 281.37 L57.32 281.37" class="st18"/>
		</g>
		<g id="shape31-97" v:mID="31" v:groupContext="shape" transform="translate(400.665,147.902) rotate(90)">
			<title>Sheet.31</title>
			<path d="M3.72 281.37 L4.08 281.37 L24.27 281.37" class="st20"/>
		</g>
		<g id="shape32-106" v:mID="32" v:groupContext="shape" transform="translate(590.586,74.2008) rotate(90)">
			<title>Sheet.32</title>
			<path d="M0 281.37 L188.68 281.37" class="st22"/>
		</g>
		<g id="shape33-111" v:mID="33" v:groupContext="shape" transform="translate(111.158,-116.004) rotate(17.0653)">
			<title>Bezier line.11</title>
			<path d="M0 281.37 L2.14 282.84 L4.24 284.25 L6.32 285.6 L8.35 286.9 L10.36 288.13 L12.33 289.3 L14.27 290.42 L16.17        291.47 L18.04 292.47 L19.88 293.41 L21.69 294.28 L23.46 295.1 L25.2 295.86 L26.9 296.56 L28.57 297.2 L30.21        297.78 L31.81 298.3 L33.39 298.76 L34.92 299.16 L36.43 299.5 L37.9 299.78 L39.34 300.01 L40.74 300.17 L42.11        300.28 L43.45 300.32 L44.75 300.31 L46.02 300.23 L48.71 299.88 L50.18 299.62 L51.67 299.3 L53.2 298.94 L54.74        298.52 L56.32 298.06 L57.92 297.55 L59.55 296.98 L61.2 296.37 L62.88 295.71 L64.59 295 L66.32 294.23 L68.08        293.42 L69.87 292.56 L71.68 291.65 L73.52 290.69 L75.39 289.68 L77.28 288.62 L79.2 287.51 L81.14 286.35        L83.11 285.14 L85.11 283.89 L85.41 283.69" class="st14"/>
		</g>
		<g id="shape34-116" v:mID="34" v:groupContext="shape" transform="translate(153.311,-30.0038)">
			<title>Sheet.34</title>
			<desc>Page table entry contains PA [47:29]</desc>
			<v:textBlock v:margins="rect(1,1,1,1)" v:tabSpace="42.5197"/>
			<v:textRect cx="39.685" cy="268.614" width="79.38" height="25.5118"/>
			<rect x="0" y="255.858" width="79.3701" height="25.5118" class="st9"/>
			<text x="1" y="266.21" class="st10" v:langID="2057"><v:paragraph/><v:tabList/>Page table entry <tspan x="1" dy="9.5999616" class="st13">contains PA </tspan>[47:29]</text>		</g>
		<g id="shape35-120" v:mID="35" v:groupContext="shape" transform="translate(11.0632,-3.07465)">
			<title>Sheet.35</title>
			<desc>PA</desc>
			<v:textBlock v:margins="rect(1,1,1,1)" v:tabSpace="42.5197"/>
			<v:textRect cx="8.76163" cy="275.701" width="17.53" height="11.3386"/>
			<rect x="0" y="270.031" width="17.5233" height="11.3386" class="st9"/>
			<text x="1" y="278.1" class="st10" v:langID="2057"><v:paragraph/><v:tabList/>PA</text>		</g>
		<g id="shape36-123" v:mID="36" v:groupContext="shape" transform="translate(11.0632,-207.169)">
			<title>Sheet.36</title>
			<desc>VA</desc>
			<v:textBlock v:margins="rect(1,1,1,1)" v:tabSpace="42.5197"/>
			<v:textRect cx="8.76163" cy="275.701" width="17.53" height="11.3386"/>
			<rect x="0" y="270.031" width="17.5233" height="11.3386" class="st9"/>
			<text x="1" y="278.1" class="st10" v:langID="2057"><v:paragraph/><v:tabList/>VA</text>		</g>
		<g id="shape37-126" v:mID="37" v:groupContext="shape" transform="translate(201.5,-207.169)">
			<title>Sheet.37</title>
			<desc>Level 3 index</desc>
			<v:textBlock v:margins="rect(0,0,0,0)" v:tabSpace="42.5197"/>
			<v:textRect cx="34.0157" cy="274.283" width="68.04" height="14.1732"/>
			<path d="M0 281.37 L68.03 281.37 L68.03 267.2 L0 267.2 L0 281.37 Z" class="st7"/>
			<text x="7.5" y="276.98" class="st4" v:langID="2057"><v:paragraph v:horizAlign="1"/><v:tabList/>Level 3 index</text>		</g>
		<g id="shape38-129" v:mID="38" v:groupContext="shape" transform="translate(267.405,-221.342)">
			<title>text3132.67</title>
			<desc>15</desc>
			<v:textBlock v:margins="rect(0,0,0,0)" v:tabSpace="42.5197"/>
			<v:textRect cx="6.73228" cy="275.701" width="13.47" height="11.3386"/>
			<rect x="0" y="270.031" width="13.4646" height="11.3386" class="st5"/>
			<text x="2.62" y="278.4" class="st6" v:langID="2057"><v:paragraph v:horizAlign="2"/><v:tabList/>15</text>		</g>
		<g id="shape39-132" v:mID="39" v:groupContext="shape" transform="translate(255.358,-221.342)">
			<title>text3132.68</title>
			<desc>16</desc>
			<v:textBlock v:margins="rect(0,0,0,0)" v:tabSpace="42.5197"/>
			<v:textRect cx="6.73228" cy="275.701" width="13.47" height="11.3386"/>
			<rect x="0" y="270.031" width="13.4646" height="11.3386" class="st5"/>
			<text x="2.62" y="278.4" class="st6" v:langID="2057"><v:paragraph v:horizAlign="2"/><v:tabList/>16</text>		</g>
		<g id="shape40-135" v:mID="40" v:groupContext="shape" transform="translate(224.692,-169.03)">
			<title>text3132.18</title>
			<desc>63</desc>
			<v:textBlock v:margins="rect(0,0,0,0)" v:tabSpace="42.5197"/>
			<v:textRect cx="9.91052" cy="275.701" width="19.83" height="11.3386"/>
			<rect x="0" y="270.031" width="19.821" height="11.3386" class="st5"/>
			<text x="0" y="278.4" class="st6" v:langID="2057"><v:paragraph/><v:tabList/>63</text>		</g>
		<g id="shape41-138" v:mID="41" v:groupContext="shape" transform="translate(274.17,-167.999)">
			<title>text3132.19</title>
			<desc>0</desc>
			<v:textBlock v:margins="rect(0,0,0,0)" v:tabSpace="42.5197"/>
			<v:textRect cx="5.75456" cy="275.701" width="11.51" height="11.3386"/>
			<rect x="0" y="270.031" width="11.5091" height="11.3386" class="st5"/>
			<text x="6.09" y="278.4" class="st6" v:langID="2057"><v:paragraph v:horizAlign="2"/><v:tabList/>0</text>		</g>
		<g id="shape42-141" v:mID="42" v:groupContext="shape" transform="translate(319.221,-81.392) rotate(35.4207)">
			<title>Bezier line.25</title>
			<path d="M0 281.37 L1.47 280.34 L2.93 279.36 L4.37 278.43 L5.8 277.55 L7.22 276.71 L8.62 275.92 L10.01 275.18 L11.39        274.49 L12.75 273.84 L14.1 273.24 L15.44 272.69 L16.76 272.19 L18.07 271.74 L19.36 271.33 L20.64 270.97        L21.91 270.66 L23.16 270.4 L24.4 270.18 L25.63 270.01 L26.84 269.89 L28.04 269.82 L29.22 269.79 L30.39 269.82        L31.55 269.89 L32.69 270.01 L33.83 270.17 L34.94 270.39 L36.04 270.65 L37.13 270.96 L38.21 271.32 L39.27        271.72 L40.32 272.17 L41.36 272.67 L42.38 273.22 L43.38 273.82 L44.38 274.46 L45.36 275.15 L46.32 275.89        L47.28 276.68 L49.05 278.27 L49.88 278.99 L50.7 279.68 L51.52 280.35 L52.33 280.98 L53.14 281.58 L53.94        282.15 L54.74 282.69 L55.54 283.2 L56.33 283.68 L57.11 284.12 L57.89 284.54 L58.67 284.93 L59.44 285.28        L60.2 285.61 L60.96 285.91 L61.72 286.17 L62.47 286.4 L63.21 286.61 L63.95 286.78 L64.69 286.92 L65.42 287.03        L66.15 287.12 L66.87 287.17 L67.59 287.19 L68.3 287.18 L69.01 287.13 L69.71 287.06 L70.41 286.96 L71.1 286.83        L71.79 286.66 L72.47 286.47 L73.15 286.25 L73.82 285.99 L74.49 285.7 L75.15 285.39 L75.81 285.04 L76.47        284.66 L77.12 284.26 L77.4 284.03" class="st14"/>
		</g>
		<g id="shape43-146" v:mID="43" v:groupContext="shape" transform="translate(505.547,153.571) rotate(90)">
			<title>Sheet.43</title>
			<path d="M3.72 281.37 L4.08 281.37 L35.61 281.37" class="st20"/>
		</g>
		<g id="shape44-153" v:mID="44" v:groupContext="shape" transform="translate(-44.7353,38.9696) rotate(-82.9127) scale(-1,1)">
			<title>Bezier line.27</title>
			<path d="M0 281.37 L1.83 279.95 L3.65 278.57 L5.47 277.24 L7.29 275.96 L9.1 274.73 L10.91 273.54 L12.72 272.4 L14.52        271.3 L16.32 270.26 L18.12 269.26 L19.91 268.3 L21.7 267.4 L23.49 266.54 L25.27 265.72 L27.05 264.96 L28.82        264.24 L30.59 263.57 L32.36 262.94 L34.13 262.36 L35.89 261.83 L37.65 261.35 L39.4 260.91 L41.15 260.52        L42.9 260.17 L44.65 259.88 L46.39 259.62 L48.12 259.42 L49.86 259.26 L51.59 259.15 L53.32 259.09 L55.04        259.08 L56.76 259.11 L58.48 259.18 L60.19 259.31 L61.9 259.48 L63.61 259.7 L66.62 260.19 L67.91 260.43 L69.18        260.68 L70.42 260.94 L71.64 261.21 L72.84 261.49 L74.01 261.77 L75.16 262.07 L76.29 262.37 L77.4 262.69        L78.48 263.01 L79.53 263.35 L80.57 263.69 L81.58 264.05 L82.56 264.41 L83.53 264.78 L84.47 265.16 L85.38        265.55 L86.28 265.95 L87.15 266.36 L87.99 266.78 L88.82 267.21 L89.62 267.65 L90.39 268.1 L91.15 268.56        L91.88 269.03 L92.58 269.5 L93.27 269.99 L93.93 270.49 L94.56 270.99 L95.18 271.51 L95.77 272.03 L96.33        272.57 L96.88 273.11 L97.4 273.66 L97.89 274.22 L98.37 274.8 L98.82 275.38 L99.24 275.97 L99.65 276.57 L100.03        277.18 L100.18 277.51" class="st14"/>
		</g>
		<g id="shape45-158" v:mID="45" v:groupContext="shape" transform="translate(160.269,-62.3445)">
			<title>Sheet.45</title>
			<desc>Page table base address</desc>
			<v:textBlock v:margins="rect(1,1,1,1)" v:tabSpace="42.5197"/>
			<v:textRect cx="28.3465" cy="268.614" width="56.7" height="25.5118"/>
			<rect x="0" y="255.858" width="56.6929" height="25.5118" class="st9"/>
			<text x="1" y="266.21" class="st10" v:langID="2057"><v:paragraph/><v:tabList/>Page table <tspan x="1" dy="9.5999616" class="st13">base address</tspan></text>		</g>
		<g id="shape46-162" v:mID="46" v:groupContext="shape" transform="translate(226.239,-72.6523)">
			<title>Sheet.46</title>
			<desc>L3 page table</desc>
			<v:textBlock v:margins="rect(1,1,1,1)" v:tabSpace="42.5197"/>
			<v:textRect cx="28.8618" cy="276.37" width="57.73" height="10"/>
			<rect x="0" y="271.37" width="57.7237" height="10" class="st9"/>
			<text x="4.62" y="278.77" class="st10" v:langID="2057"><v:paragraph v:horizAlign="1"/><v:tabList/>L3 page table</text>		</g>
		<g id="shape47-165" v:mID="47" v:groupContext="shape" transform="translate(-13.8827,88.0263) rotate(-76.4106) scale(-1,1)">
			<title>Bezier line.30</title>
			<path d="M0 281.37 L0.98 281.45 L1.95 281.56 L2.92 281.7 L3.89 281.87 L4.84 282.08 L5.79 282.33 L6.74 282.6 L7.68 282.91        L8.61 283.25 L9.54 283.63 L10.46 284.04 L11.38 284.48 L12.29 284.96 L13.19 285.47 L14.09 286.01 L14.98 286.58        L15.87 287.19 L16.75 287.84 L17.62 288.51 L18.49 289.22 L19.35 289.96 L20.21 290.74 L21.06 291.55 L21.9        292.39 L22.74 293.27 L23.58 294.18 L24.4 295.12 L25.23 296.09 L26.04 297.1 L26.85 298.15 L27.65 299.22 L28.45        300.33 L29.24 301.47 L30.03 302.65 L30.81 303.86 L31.59 305.1 L32.35 306.38 L33.12 307.69 L33.87 309.03        L34.62 310.4 L35.37 311.81 L36.11 313.25 L36.84 314.73 L37.57 316.24 L38.79 318.83 L39.32 319.82 L39.86        320.77 L40.43 321.66 L41.01 322.51 L41.61 323.3 L42.24 324.05 L42.89 324.75 L43.55 325.4 L44.24 326 L44.95        326.55 L45.67 327.05 L46.42 327.5 L47.19 327.9 L47.98 328.25 L48.79 328.55 L49.62 328.8 L50.47 329.01 L51.34        329.16 L52.23 329.26 L53.14 329.32 L54.07 329.32 L55.02 329.28 L55.99 329.19 L56.99 329.04 L58 328.85 L59.03        328.61 L60.09 328.32 L61.16 327.98 L62.26 327.59 L63.37 327.15 L64.51 326.66 L65.66 326.12 L66.84 325.53        L68.04 324.89 L69.26 324.2 L70.49 323.47 L71.75 322.68 L73.03 321.85 L74.33 320.96 L75.65 320.03 L76.99        319.04 L78.35 318.01 L79.73 316.92 L81.13 315.79 L82.55 314.61 L83.99 313.38 L85.46 312.1 L86.94 310.77        L88.44 309.39 L89.97 307.96 L91.51 306.48 L93.08 304.95 L94.66 303.37 L96.27 301.75 L97.89 300.07 L99.54        298.34 L101.2 296.57 L102.89 294.74 L104.6 292.87 L106.33 290.94 L108.07 288.97 L109.84 286.95 L111.63 284.88        L111.87 284.6" class="st14"/>
		</g>
		<g id="shape48-170" v:mID="48" v:groupContext="shape" transform="translate(226.754,-132.901)">
			<title>Sheet.48</title>
			<desc>...</desc>
			<v:textBlock v:margins="rect(0,0,0,0)" v:tabSpace="42.5197"/>
			<v:textRect cx="28.3465" cy="263.37" width="56.7" height="36"/>
			<path d="M0 281.37 L56.69 281.37 L56.69 245.37 L0 245.37 L0 281.37 Z" class="st3"/>
			<text x="24.6" y="266.07" class="st4" v:langID="2057"><v:paragraph v:horizAlign="1"/><v:tabList/>...</text>		</g>
	</g>
</svg>